<?xml version="1.0" encoding="utf-8"?>
<!-- Generator: Adobe Illustrator 24.2.1, SVG Export Plug-In . SVG Version: 6.00 Build 0)  -->
<svg version="1.1" id="Layer_1" xmlns="http://www.w3.org/2000/svg" xmlns:xlink="http://www.w3.org/1999/xlink" x="0px" y="0px"
	 viewBox="0 0 40 40" style="enable-background:new 0 0 40 40;" xml:space="preserve">
<style type="text/css">
	.st0{fill:#6290CB;stroke:#000000;stroke-width:1.9803;}
	.st1{fill:#B36FAD;stroke:#000000;stroke-width:1.9803;}
	.st2{fill:#12C549;stroke:#000000;stroke-width:1.9803;}
	.st3{fill:#FAF132;stroke:#000000;stroke-width:1.9803;}
	.st4{fill:#F8B018;}
	.st5{fill:#1EA9FF;}
	.st6{fill:#B36FAD;}
	.st7{fill:#D12027;}
	.st8{fill:#129E49;}
	.st9{fill:#FAF123;}
	.st10{fill:#6290CB;}
	.st11{fill:#F05623;stroke:#000000;stroke-width:1.9803;}
	.st12{fill:#231F20;}
	.st13{fill:#FFFFFF;}
</style>
<desc>Created with Sketch.</desc>
<g id="ID0.4697581664659083">
	<path id="Bottom_Leg3" class="st0" d="M10,28.9c-0.2,1.1-0.4,2.1-1.1,3c-0.7,0.9-1.7,1.9-3,1.9c-0.7,0-2.9-0.9-1.9-1.9
		c0.4-0.4,1.2-0.2,1.6-0.1c1.1,0.3,1.6-0.1,2-0.5c0.9-1,1.1-1.6,1.5-2.5C9.2,28.7,9.8,28.9,10,28.9L10,28.9L10,28.9L10,28.9L10,28.9
		L10,28.9L10,28.9L10,28.9z"/>
	<path id="Bottom_Leg2" class="st1" d="M14.8,30.5c0.2,1.3,0.4,2.6,1.1,3.7c0.8,1.2,2,2.4,3.5,2.5c0.8,0,3.6-0.9,2.5-2.2
		c-0.4-0.5-1.4-0.4-2-0.2c-1.3,0.3-1.9-0.2-2.5-0.8c-1.1-1.3-1.2-2.1-1.6-3.2C15.7,30.3,15,30.6,14.8,30.5L14.8,30.5L14.8,30.5
		L14.8,30.5L14.8,30.5L14.8,30.5L14.8,30.5L14.8,30.5z"/>
	<path id="Bottom_Leg1" class="st2" d="M22.3,27.3c0.8,1.1,1.6,2.1,2.8,2.7c1.3,0.7,2.9,1.2,4.3,0.5c0.7-0.4,2.7-2.6,1.1-3.1
		c-0.6-0.2-1.5,0.3-2,0.5c-0.7,0.3-1.5,0.4-2.2,0.4c-1.6-0.1-2.1-0.9-3-1.6C23,26.7,22.5,27.3,22.3,27.3L22.3,27.3L22.3,27.3
		L22.3,27.3L22.3,27.3L22.3,27.3L22.3,27.3L22.3,27.3z"/>
	<path id="Top_Leg3" class="st3" d="M10,10.7c-0.2-1.1-0.4-2.1-1.1-3c-0.7-0.9-1.7-1.9-3-1.9C5.2,5.8,3.1,6.8,4,7.7
		C4.4,8.1,5.2,8,5.6,7.8c1.1-0.3,1.6,0.1,2,0.5c0.9,1,1.1,1.6,1.5,2.5C9.2,10.9,9.8,10.7,10,10.7L10,10.7L10,10.7L10,10.7L10,10.7
		L10,10.7L10,10.7L10,10.7z"/>
	<path id="Top_Leg2" class="st2" d="M14.8,9.5c0.2-1.3,0.4-2.6,1.1-3.7c0.8-1.2,2-2.4,3.5-2.5c0.8,0,3.6,0.9,2.5,2.2
		c-0.4,0.5-1.4,0.4-2,0.2c-1.3-0.3-1.9,0.2-2.5,0.8c-1.1,1.3-1.2,2.1-1.6,3.2C15.7,9.7,15,9.4,14.8,9.5L14.8,9.5L14.8,9.5L14.8,9.5
		L14.8,9.5L14.8,9.5L14.8,9.5L14.8,9.5z"/>
	<path id="Top_Leg1" class="st1" d="M23.3,13.2c0.7-0.8,1.5-2,2.7-2c1.4,0,2.6,1.4,4,1.2c1.7-0.3,0.1-2.4-0.7-2.9
		c-1.3-0.9-2.8-0.6-4.1,0.1c-1,0.5-2.3,1.2-2.7,2.3c0,0.1-0.1,0.2-0.2,0.4C22.7,12.4,23,12.8,23.3,13.2L23.3,13.2L23.3,13.2
		L23.3,13.2L23.3,13.2L23.3,13.2L23.3,13.2L23.3,13.2z"/>
	<g id="Bottom_Wing_1_">
		<g id="Bottom_Wing">
			<path id="ID0.9817337654531002" class="st4" d="M15,30.2c-1.8,0-3.5-0.4-5.1-1.1l-0.1,0l0,0l-0.1,0c-2.9-1.4-4.6-3.7-4.6-6.2
				c0-2.3,2.2-2.7,4.2-2.8l0,0l0,0c0.6,0,1.2,0,2,0c0.6,0,1.1,0,1.7,0c0.6,0,1.3,0,1.9,0c2.1,0,4.3,0,6.6,0l3.9,0l0,0.4
				c0,2.1-0.7,4.1-2.1,5.9l0,0l0,0C21.3,28.5,17.8,30.2,15,30.2L15,30.2L15,30.2L15,30.2L15,30.2L15,30.2L15,30.2L15,30.2z"/>
			<path id="ID0.8338045510463417" d="M25.1,20.4c0,1.8-0.6,3.7-2,5.7c-2,2.1-5.4,3.8-8.1,3.8c0,0,0,0,0,0c-1.8,0-3.5-0.4-4.9-1.1
				c0,0-0.1-0.1-0.1-0.1c0,0,0,0,0,0c-2.6-1.3-4.4-3.4-4.4-5.8c0-1.7,1.5-2.3,3.8-2.4c0.6,0,1.3,0,2,0c1.1,0,2.4,0,3.6,0
				c2.5,0,4.7,0,6.6,0L25.1,20.4 M25.9,19.6l-0.8,0l-3.5,0c-2.3,0-4.5,0-6.6,0c-0.7,0-1.3,0-1.9,0c-0.6,0-1.2,0-1.7,0
				c-0.8,0-1.4,0-2,0l0,0l0,0c-1.2,0.1-4.6,0.3-4.6,3.2c0,2.6,1.8,5.1,4.8,6.5l0,0l0.1,0.1l0,0h0c1.6,0.7,3.4,1.1,5.2,1.1
				c2.9,0,6.5-1.7,8.7-4l0,0l0,0c1.4-1.8,2.1-3.9,2.1-6.1L25.9,19.6L25.9,19.6l-0.8,0.8l0,0l0,0l0,0l0,0l0,0L25.9,19.6z"/>
		</g>
		<path id="Spot_9_" class="st5" d="M17.7,21.7c0.8,0,1.5,0.3,2,0.7c0.5,0.5,0.8,1.1,0.8,1.8c0,0.7-0.3,1.3-0.8,1.8
			c-0.5,0.5-1.2,0.7-2,0.7s-1.5-0.3-2-0.7c-0.5-0.5-0.8-1.1-0.8-1.8c0-0.7,0.3-1.3,0.8-1.8C16.2,22,16.9,21.7,17.7,21.7L17.7,21.7
			L17.7,21.7L17.7,21.7L17.7,21.7L17.7,21.7z"/>
		<path id="Spot_8_" class="st6" d="M9.3,20.9c0.9,0,1.7,0.3,2.2,0.8c0.6,0.5,0.9,1.2,0.9,1.9c0,0.8-0.4,1.4-0.9,1.9
			c-0.6,0.5-1.4,0.8-2.2,0.8c-0.9,0-1.7-0.3-2.2-0.8c-0.6-0.5-0.9-1.2-0.9-1.9c0-0.8,0.4-1.4,0.9-1.9C7.7,21.3,8.5,20.9,9.3,20.9
			L9.3,20.9L9.3,20.9L9.3,20.9L9.3,20.9L9.3,20.9z"/>
		<path id="Spot_7_" class="st7" d="M14,26.6c0.4,0,0.7,0.1,1,0.4c0.2,0.2,0.4,0.5,0.4,0.9c0,0.3-0.2,0.6-0.4,0.9
			c-0.2,0.2-0.6,0.4-1,0.4c-0.4,0-0.7-0.1-1-0.4c-0.2-0.2-0.4-0.5-0.4-0.9c0-0.3,0.2-0.6,0.4-0.9C13.3,26.7,13.6,26.6,14,26.6
			L14,26.6L14,26.6L14,26.6L14,26.6L14,26.6z"/>
		<path id="Spot_6_" class="st8" d="M20.6,26.6c-1,0.2-1.7,0.9-1.6,1.8c0,0.2,0.1,0.3,0.2,0.4c1.1-0.5,2.1-1.1,3-1.8
			C21.8,26.6,21.2,26.5,20.6,26.6L20.6,26.6L20.6,26.6L20.6,26.6L20.6,26.6L20.6,26.6L20.6,26.6z"/>
		<path id="Spot_5_" class="st9" d="M20.5,21.6c-0.1,1,0.8,1.9,1.9,2c1.1,0.1,2.1-0.7,2.1-1.7c0-0.6-0.2-1.1-0.6-1.4l-2.3,0
			c-0.2,0-0.3,0-0.5,0C20.7,20.7,20.5,21.1,20.5,21.6L20.5,21.6L20.5,21.6L20.5,21.6L20.5,21.6L20.5,21.6L20.5,21.6z"/>
	</g>
	<g id="Top_Wing_1_">
		<g id="Top_Wing">
			<path id="ID0.5299901133403182" class="st4" d="M15.1,19.7c-0.7,0-1.4,0-2.1,0c-0.6,0-1.2,0-1.8,0c-0.6,0-1.1,0-1.5,0l0,0l0,0
				c-2-0.1-4.4-0.6-4.4-2.8c0-4,4.5-7.4,9.9-7.4c2.8,0,6.3,1.6,8.4,3.8l0,0l0,0c0.1,0.1,1.6,2.4,2,5.5l0,0.4l-3.9,0.2
				C19.4,19.7,17.2,19.7,15.1,19.7L15.1,19.7L15.1,19.7L15.1,19.7L15.1,19.7L15.1,19.7L15.1,19.7L15.1,19.7z"/>
			<path id="ID0.40440370980650187" d="M15.1,10c2.7,0,6.1,1.6,8.1,3.7c0,0,1.6,2.3,1.9,5.4l-3.5,0.2c-1.8,0.1-4.1,0.2-6.6,0.2
				c-1.4,0-2.7,0-3.9,0c-0.5,0-1.1,0-1.5,0c-2.4-0.2-4-0.7-4-2.4C5.6,13.1,10,10,15.1,10 M15.1,9.2c-5.6,0-10.3,3.5-10.3,7.7
				c0,2.9,3.5,3.1,4.8,3.2l0,0l0,0c0.4,0,0.9,0,1.5,0c0.6,0,1.2,0,1.8,0c0.7,0,1.4,0,2.1,0c2.1,0,4.3-0.1,6.6-0.2l3.5-0.2l0.8,0
				l-0.1-0.8c-0.4-3.3-2-5.6-2-5.7l0-0.1l0,0C21.6,10.8,17.9,9.2,15.1,9.2L15.1,9.2V10l0,0l0,0l0,0l0,0l0,0V9.2z"/>
		</g>
		<path id="Spot_4_" class="st8" d="M11.3,15.6c-1.5,0-2.7,1-2.7,2.3c0,0.5,0.2,1,0.5,1.4c0.1,0,0.3,0,0.5,0c1.2,0,2.5,0,3.8,0
			c0.3-0.4,0.5-0.9,0.5-1.4C14,16.7,12.8,15.6,11.3,15.6L11.3,15.6L11.3,15.6L11.3,15.6L11.3,15.6L11.3,15.6L11.3,15.6z"/>
		<path id="Spot_3_" class="st10" d="M8.5,14.5c0-0.7-0.3-1.3-0.9-1.7c-1.2,1.1-1.9,2.5-2,4c0.1,0,0.1,0,0.2,0
			C7.3,16.8,8.5,15.7,8.5,14.5L8.5,14.5L8.5,14.5L8.5,14.5L8.5,14.5L8.5,14.5L8.5,14.5z"/>
		<path id="Spot_2_" class="st6" d="M19.8,17.4c-0.7,0-1.4,0.6-1.4,1.2c0,0.2,0.1,0.5,0.2,0.7c0.8,0,1.6,0,2.3-0.1
			c0.1-0.2,0.2-0.4,0.2-0.6C21.2,18,20.6,17.4,19.8,17.4L19.8,17.4L19.8,17.4L19.8,17.4L19.8,17.4L19.8,17.4L19.8,17.4z"/>
		<path id="Spot_1_" class="st9" d="M14.8,12.8c0,0.5-0.3,1-0.7,1.3c-0.4,0.3-0.9,0.5-1.5,0.5c-0.6,0-1.1-0.3-1.4-0.6
			c-0.3-0.4-0.6-0.8-0.5-1.3c0-0.5,0.3-1,0.7-1.3c0.4-0.3,0.9-0.5,1.5-0.5c0.6,0,1.1,0.3,1.4,0.6C14.6,11.8,14.8,12.2,14.8,12.8
			L14.8,12.8L14.8,12.8L14.8,12.8L14.8,12.8L14.8,12.8z"/>
		<path id="Spot" class="st7" d="M16.3,13c-0.1,1.4,0.9,2.6,2.3,2.7c1.3,0.1,2.5-1,2.6-2.4c0-0.6-0.1-1.1-0.4-1.6
			c-0.7-0.4-1.5-0.8-2.4-1.1C17.3,10.8,16.4,11.8,16.3,13L16.3,13L16.3,13L16.3,13L16.3,13L16.3,13L16.3,13z"/>
	</g>
	<g id="Head">
		<path id="Bottom_Antenna" class="st11" d="M30.1,17.4c0,0,2.6-2.8,3.5-2.4c0.9,0.4,1.7,1.8,2.3,1c0.6-0.7-0.6-2.4-2.3-2.3
			c-1.7,0-4.2,2-4.2,2L30.1,17.4L30.1,17.4L30.1,17.4L30.1,17.4L30.1,17.4L30.1,17.4L30.1,17.4z"/>
		<path id="Top_Antenna" class="st11" d="M30.2,22.5c0,0,2.6,2.8,3.5,2.4c0.9-0.4,1.7-1.8,2.3-1c0.6,0.7-0.6,2.4-2.3,2.3
			c-1.7,0-4.2-2-4.2-2L30.2,22.5L30.2,22.5L30.2,22.5L30.2,22.5L30.2,22.5L30.2,22.5L30.2,22.5z"/>
		<g id="Head_1_">
			<path id="ID0.25746554555371404" class="st4" d="M24.6,26.1c-1.8,0-2.5-3.2-2.5-6.2c0-3.9,0.9-6.2,2.5-6.2c3.4,0,6.2,2.8,6.2,6.2
				C30.9,23.2,28,26.1,24.6,26.1L24.6,26.1L24.6,26.1L24.6,26.1L24.6,26.1L24.6,26.1L24.6,26.1L24.6,26.1z"/>
			<path id="ID0.32972077559679747" d="M24.6,14.1c3.2,0,5.8,2.6,5.8,5.8c0,3.2-2.6,5.8-5.8,5.8c-1.4,0-2.1-2.6-2.1-5.8
				C22.6,16.7,23.2,14.1,24.6,14.1C24.6,14.1,24.6,14.1,24.6,14.1 M24.6,13.3L24.6,13.3c-1.8,0-2.9,2.4-2.9,6.6
				c0,4.1,1.1,6.6,2.9,6.6c1.7,0,3.4-0.7,4.7-2c1.3-1.3,2-2.9,2-4.7c0-1.7-0.7-3.4-2-4.7C28,14,26.4,13.3,24.6,13.3L24.6,13.3v0.8
				l0,0l0,0l0,0l0,0l0,0V13.3z"/>
		</g>
		<path id="Mouth" class="st12" d="M28.6,21.3c1.1-0.3,1.2-2.4-0.1-2.5c-0.3,0-0.4,0.3-0.2,0.5c0.2,0.2,0.5,0.4,0.5,0.7
			c0,0.3-0.2,0.6-0.4,0.7C28,20.8,28.2,21.4,28.6,21.3L28.6,21.3L28.6,21.3L28.6,21.3L28.6,21.3L28.6,21.3L28.6,21.3L28.6,21.3z"/>
		<g id="Bottom_Eye">
			<path id="White_1_" class="st13" d="M26.8,22c-0.1-0.7-0.9-1.1-1.5-1c-0.7,0.1-1.3,0.8-1.2,1.4c0.1,0.7,0.9,1.1,1.5,1
				C26.4,23.3,26.9,22.6,26.8,22L26.8,22L26.8,22L26.8,22L26.8,22L26.8,22L26.8,22z"/>
			<path id="Pupil_1_" class="st12" d="M26.3,21.5c0.2,0,0.3,0.1,0.5,0.2c0.1,0.1,0.2,0.3,0.2,0.4s-0.1,0.3-0.2,0.4
				c-0.1,0.1-0.3,0.2-0.5,0.2s-0.3-0.1-0.5-0.2c-0.1-0.1-0.2-0.3-0.2-0.4s0.1-0.3,0.2-0.4C25.9,21.6,26.1,21.5,26.3,21.5L26.3,21.5
				L26.3,21.5L26.3,21.5L26.3,21.5L26.3,21.5z"/>
			<path id="Outline_1_" class="st12" d="M27.4,21.8c-0.2-1-1.2-1.8-2.2-1.6c-1.1,0.2-1.8,1.1-1.7,2.2c0.2,1,1.2,1.8,2.2,1.6
				C26.8,23.9,27.6,22.9,27.4,21.8L27.4,21.8L27.4,21.8L27.4,21.8L27.4,21.8L27.4,21.8L27.4,21.8z M25.7,23.4
				c-0.7,0.1-1.4-0.4-1.5-1c-0.1-0.7,0.5-1.3,1.2-1.4c0.7-0.1,1.4,0.4,1.5,1C26.9,22.6,26.4,23.3,25.7,23.4L25.7,23.4L25.7,23.4
				L25.7,23.4L25.7,23.4L25.7,23.4L25.7,23.4z"/>
		</g>
		<g id="Top_Eye">
			<path id="White" class="st13" d="M26.7,17.5c-0.1-0.7-0.9-1.1-1.6-1c-0.7,0.1-1.3,0.8-1.2,1.4c0.1,0.7,0.9,1.1,1.5,1
				C26.2,18.8,26.8,18.2,26.7,17.5L26.7,17.5L26.7,17.5L26.7,17.5L26.7,17.5L26.7,17.5L26.7,17.5z"/>
			<path id="Pupil" class="st12" d="M26.1,17.1c0.2,0,0.3,0.1,0.5,0.2c0.1,0.1,0.2,0.3,0.2,0.4s-0.1,0.3-0.2,0.4
				c-0.1,0.1-0.3,0.2-0.5,0.2c-0.2,0-0.3-0.1-0.5-0.2c-0.1-0.1-0.2-0.3-0.2-0.4s0.1-0.3,0.2-0.4C25.8,17.1,25.9,17.1,26.1,17.1
				L26.1,17.1L26.1,17.1L26.1,17.1L26.1,17.1L26.1,17.1z"/>
			<path id="Outline" class="st12" d="M27.3,17.4c-0.2-1-1.2-1.8-2.2-1.6c-1.1,0.2-1.8,1.1-1.7,2.2c0.2,1,1.2,1.8,2.2,1.6
				C26.7,19.4,27.4,18.4,27.3,17.4L27.3,17.4L27.3,17.4L27.3,17.4L27.3,17.4L27.3,17.4L27.3,17.4z M25.5,18.9
				c-0.7,0.1-1.4-0.4-1.5-1c-0.1-0.7,0.5-1.3,1.2-1.4c0.7-0.1,1.4,0.4,1.6,1C26.8,18.2,26.2,18.8,25.5,18.9L25.5,18.9L25.5,18.9
				L25.5,18.9L25.5,18.9L25.5,18.9L25.5,18.9z"/>
		</g>
	</g>
</g>
</svg>
