<?xml version="1.0" encoding="UTF-8" standalone="no"?>
<svg
   xmlns:dc="http://purl.org/dc/elements/1.1/"
   xmlns:cc="http://creativecommons.org/ns#"
   xmlns:rdf="http://www.w3.org/1999/02/22-rdf-syntax-ns#"
   xmlns:svg="http://www.w3.org/2000/svg"
   xmlns="http://www.w3.org/2000/svg"
   xmlns:sodipodi="http://sodipodi.sourceforge.net/DTD/sodipodi-0.dtd"
   xmlns:inkscape="http://www.inkscape.org/namespaces/inkscape"
   inkscape:version="1.0beta1 (32d4812, 2019-09-19)"
   sodipodi:docname="continuousServo-small.svg"
   id="svg403"
   version="1.1"
   viewBox="0 0 40 40"
   height="40px"
   width="40px">
  <metadata
     id="metadata407">
    <rdf:RDF>
      <cc:Work
         rdf:about="">
        <dc:format>image/svg+xml</dc:format>
        <dc:type
           rdf:resource="http://purl.org/dc/dcmitype/StillImage" />
        <dc:title>microbit-block-icon</dc:title>
      </cc:Work>
    </rdf:RDF>
  </metadata>
  <sodipodi:namedview
     inkscape:current-layer="svg403"
     inkscape:window-maximized="0"
     inkscape:window-y="23"
     inkscape:window-x="0"
     inkscape:cy="25.506146"
     inkscape:cx="12.717481"
     inkscape:zoom="7.9195959"
     showgrid="false"
     id="namedview405"
     inkscape:window-height="1035"
     inkscape:window-width="1600"
     inkscape:pageshadow="2"
     inkscape:pageopacity="0"
     guidetolerance="10"
     gridtolerance="10"
     objecttolerance="10"
     borderopacity="1"
     inkscape:document-rotation="0"
     bordercolor="#666666"
     pagecolor="#ffffff" />
  <!-- Generator: Sketch 50.2 (55047) - http://www.bohemiancoding.com/sketch -->
  <title
     id="title10">microbit-block-icon</title>
  <desc
     id="desc12">Created with Sketch.</desc>
  <defs
     id="defs14" />
  <path
     style="opacity:1;fill:#e4e4e4;stroke-width:0.0561597;stop-opacity:1"
     d="M 15.381227,24.032481 C 14.095632,23.902283 12.976513,22.8347 12.764619,21.536368 12.704836,21.170063 12.74836,20.721261 13.402731,14.9564 14.029284,9.4366015 14.11893,8.7416605 14.234185,8.5108851 c 0.343252,-0.6872972 1.062597,-1.0527278 1.80622,-0.9175699 0.379392,0.068956 0.642713,0.209319 0.889235,0.4740036 0.283242,0.3041105 0.366325,0.4562101 0.440673,0.8067382 0.03583,0.1689458 0.369268,2.998629 0.740965,6.288184 0.757258,6.701824 0.739217,6.349704 0.366525,7.153843 -0.545803,1.177648 -1.76167,1.85159 -3.096576,1.716397 z m 0.661412,-1.909813 c 0.44438,-0.123406 0.823038,-0.625116 0.825587,-1.093878 0.0016,-0.29779 -0.197583,-0.678532 -0.467297,-0.893159 -0.199151,-0.158478 -0.24969,-0.171735 -0.654664,-0.171735 -0.404973,0 -0.455512,0.01326 -0.654664,0.171735 -0.118696,0.09445 -0.274507,0.283992 -0.346247,0.421197 -0.24478,0.468153 -0.08372,1.092185 0.36044,1.396527 0.317364,0.217462 0.587597,0.2663 0.936845,0.169313 z m -0.102331,-4.636605 c 0.05,-0.01919 0.128361,-0.107307 0.174134,-0.195823 0.07302,-0.141205 0.07322,-0.184881 0.0016,-0.356234 -0.136675,-0.327107 -0.572277,-0.345175 -0.735009,-0.03048 -0.194272,0.375681 0.153715,0.738161 0.559251,0.582542 z m 0,-1.96559 c 0.05,-0.01919 0.128361,-0.107307 0.174134,-0.195822 0.07302,-0.141206 0.07322,-0.184882 0.0016,-0.356234 -0.138113,-0.33055 -0.572467,-0.344809 -0.738242,-0.02423 -0.189533,0.366516 0.164338,0.729073 0.562484,0.57629 z m 0.02838,-1.985678 c 0.162055,-0.08673 0.227059,-0.342976 0.139706,-0.550727 -0.13132,-0.31232 -0.570195,-0.315609 -0.730571,-0.0055 -0.196829,0.380626 0.207593,0.761323 0.590865,0.556202 z m 0,-1.96559 c 0.162055,-0.08673 0.227059,-0.342976 0.139706,-0.550727 -0.13132,-0.312319 -0.570195,-0.315609 -0.730571,-0.0055 -0.196829,0.380626 0.207593,0.761323 0.590865,0.556202 z m 0,-1.9655901 C 16.025185,9.573379 16.098816,9.4700233 16.132312,9.3739357 16.303217,8.883676 15.616239,8.5863693 15.377824,9.047413 15.180995,9.4280388 15.585417,9.8087354 15.968688,9.6036149 Z M 5.2372363,21.803126 c -0.069856,-0.08907 -0.06787,-0.09106 0.021203,-0.0212 0.054054,0.04239 0.098279,0.08662 0.098279,0.09828 0,0.04622 -0.046118,0.01647 -0.119482,-0.07708 z m 30.1368477,-0.01404 c 0.05591,-0.06178 0.114284,-0.112319 0.129728,-0.112319 0.01544,0 -0.01766,0.05054 -0.07357,0.112319 -0.05591,0.06178 -0.114284,0.11232 -0.129728,0.11232 -0.01544,0 0.01766,-0.05054 0.07357,-0.11232 z"
     id="path507"
     inkscape:connector-curvature="0" />
  <path
     style="opacity:1;fill:#67b4fc;stroke-width:0.0561597;stop-opacity:1"
     d="M 4.1494104,27.765861 C 3.9226796,27.64764 3.7909469,27.522725 3.6802179,27.32095 3.5985257,27.172088 3.5857477,26.830458 3.571122,24.404202 c -0.011603,-1.924867 0.00215,-2.793325 0.045916,-2.89898 0.085481,-0.20637 0.2722454,-0.277733 0.726856,-0.277733 0.4876965,0 0.5446178,0.02353 0.6749504,0.279003 0.3321673,0.651102 1.1125997,0.859775 1.6795471,0.44908 0.9884351,-0.716018 0.2867712,-2.267395 -0.9094756,-2.010846 -0.2990123,0.06413 -0.6593099,0.368612 -0.8367426,0.707126 l -0.095668,0.182519 h -0.501828 c -0.4104427,0 -0.5259711,-0.01955 -0.6344087,-0.107368 L 3.587688,20.619635 v -2.826977 -2.826976 l 0.1536457,-0.261365 c 0.1066984,-0.181504 0.227945,-0.297332 0.3968088,-0.379078 0.236844,-0.114654 0.3153154,-0.117708 3.0193779,-0.117503 2.7311692,2.24e-4 2.773481,0.0019 2.6077357,0.104848 -0.2236307,0.138891 -0.4002008,0.336629 -0.4736167,0.530394 -0.041075,0.10841 -0.0599,2.054842 -0.0599,6.193412 0,4.931441 0.013828,6.06837 0.075604,6.216032 0.073068,0.174651 0.2238218,0.344545 0.4579128,0.516051 0.099218,0.07269 -0.2119349,0.08246 -2.6675862,0.08373 -2.4135433,0.0013 -2.8020927,-0.01013 -2.9482595,-0.08634 z m 26.7615876,-0.02821 c 0.108993,-0.0637 0.260624,-0.206973 0.336958,-0.318375 l 0.138788,-0.202549 V 21.030674 14.844619 L 31.2258,14.63361 c -0.08852,-0.116054 -0.24015,-0.259306 -0.336958,-0.318336 -0.174807,-0.106593 -0.156982,-0.10733 2.600201,-0.107538 2.704062,-2.25e-4 2.782534,0.0028 3.019378,0.117503 0.168864,0.08175 0.29011,0.197574 0.396809,0.379078 l 0.153645,0.261365 v 2.826976 2.826977 l -0.132581,0.107368 c -0.108437,0.08782 -0.223966,0.107368 -0.634408,0.107368 h -0.501828 l -0.09567,-0.176775 c -0.272032,-0.502664 -0.630607,-0.738055 -1.117626,-0.733679 -0.611702,0.0055 -1.090424,0.483265 -1.095909,1.093726 -0.0069,0.763559 0.718323,1.324027 1.43523,1.109237 0.251812,-0.07544 0.619043,-0.413832 0.778305,-0.717175 l 0.09567,-0.182216 h 0.449247 c 0.556478,0 0.717775,0.06736 0.795352,0.332169 0.03869,0.132063 0.05301,1.119284 0.0416,2.868935 -0.01945,2.984755 -0.01211,2.929083 -0.428027,3.246393 l -0.198276,0.151269 -2.868565,0.01361 -2.868564,0.01361 z"
     id="path505"
     inkscape:connector-curvature="0" />
  <path
     style="opacity:1;fill:#a1b1c0;stroke-width:0.0561597;stop-opacity:1"
     d="m 5.7919566,27.868419 c 0.779918,-0.0088 2.0561474,-0.0088 2.8360654,0 0.779918,0.0088 0.1418033,0.01601 -1.4180327,0.01601 -1.5598359,0 -2.1979506,-0.0072 -1.4180327,-0.01601 z m 26.2265844,0 c 0.779918,-0.0088 2.056148,-0.0088 2.836066,0 0.779918,0.0088 0.141803,0.01601 -1.418033,0.01601 -1.559836,0 -2.197951,-0.0072 -1.418033,-0.01601 z M 3.564042,27.03534 c 0.0027,-0.06542 0.016002,-0.07873 0.033929,-0.03393 0.016223,0.04054 0.014228,0.08898 -0.00443,0.10764 -0.018662,0.01866 -0.031935,-0.01451 -0.029496,-0.07371 z m 33.471187,0 c 0.0027,-0.06542 0.016,-0.07873 0.03393,-0.03393 0.01622,0.04054 0.01423,0.08898 -0.0044,0.10764 -0.01866,0.01866 -0.03194,-0.01451 -0.0295,-0.07371 z M 15.423347,24.052922 c 0.05405,-0.01412 0.142505,-0.01412 0.196559,0 0.05405,0.01413 0.0098,0.02568 -0.09828,0.02568 -0.108107,0 -0.152333,-0.01156 -0.09828,-0.02568 z m 0.449278,0 c 0.05405,-0.01412 0.142505,-0.01412 0.196559,0 0.05405,0.01413 0.0098,0.02568 -0.09828,0.02568 -0.108107,0 -0.152333,-0.01156 -0.09828,-0.02568 z m -2.291151,-0.873883 -0.221996,-0.238679 0.238678,0.221997 c 0.221969,0.206454 0.264486,0.255361 0.221997,0.255361 -0.0092,0 -0.116581,-0.107405 -0.238679,-0.238679 z m 4.27078,0.01404 c 0.120645,-0.123551 0.231991,-0.224639 0.247434,-0.224639 0.01544,0 -0.07063,0.101088 -0.191274,0.224639 -0.120644,0.123552 -0.23199,0.224639 -0.247434,0.224639 -0.01544,0 0.07063,-0.101087 0.191274,-0.224639 z M 5.9042761,22.142571 c 0.069498,-0.01339 0.183221,-0.01339 0.2527187,0 0.069498,0.01338 0.012636,0.02434 -0.1263594,0.02434 -0.1389953,0 -0.195857,-0.01095 -0.1263593,-0.02434 z m 9.7437099,9.21e-4 c 0.05405,-0.01412 0.142505,-0.01412 0.196559,0 0.05405,0.01413 0.0098,0.02568 -0.09828,0.02568 -0.108107,0 -0.152333,-0.01156 -0.09828,-0.02568 z m 18.841582,-9.21e-4 c 0.0695,-0.01339 0.183222,-0.01339 0.252719,0 0.0695,0.01338 0.01264,0.02434 -0.126359,0.02434 -0.138995,0 -0.195857,-0.01095 -0.12636,-0.02434 z M 6.8168714,21.817166 c 0.072544,-0.07722 0.1445343,-0.140399 0.1599782,-0.140399 0.015444,0 -0.031274,0.06318 -0.1038185,0.140399 -0.072544,0.07722 -0.1445343,0.1404 -0.1599783,0.1404 -0.015444,0 0.031275,-0.06318 0.1038186,-0.1404 z m 26.9524096,-0.01404 -0.136148,-0.154439 0.154439,0.136149 c 0.08494,0.07488 0.154439,0.14438 0.154439,0.154439 0,0.04405 -0.04548,0.0082 -0.17273,-0.136149 z M 37.0157,21.51279 c -0.02443,-0.09341 -0.01712,-0.11534 0.02455,-0.07367 0.03263,0.03263 0.04829,0.09248 0.03478,0.133001 -0.01402,0.04206 -0.03948,0.0166 -0.05934,-0.05934 z M 3.5596082,21.51159 c 0,-0.02906 0.024983,-0.06829 0.055517,-0.08716 0.031835,-0.01968 0.041249,0.0029 0.022071,0.05284 -0.037334,0.09729 -0.077588,0.115093 -0.077588,0.03431 z M 18.727164,21.47553 c 0.0027,-0.06542 0.016,-0.07873 0.03393,-0.03393 0.01622,0.04054 0.01423,0.08898 -0.0044,0.10764 -0.01866,0.01866 -0.03193,-0.01451 -0.0295,-0.07371 z M 3.7692709,21.276682 c 0.038095,-0.03838 0.083411,-0.05564 0.1007017,-0.03834 0.017291,0.01729 -0.013878,0.04869 -0.069263,0.06978 -0.080039,0.03048 -0.086489,0.02403 -0.031439,-0.03144 z m 33.0368851,0.007 c -0.05062,-0.03271 -0.05754,-0.05478 -0.01735,-0.0553 0.03679,-4.49e-4 0.0825,0.02441 0.101594,0.0553 0.04309,0.06972 0.02365,0.06972 -0.08424,0 z m -19.988422,-0.08892 c 0.0027,-0.06542 0.016,-0.07873 0.03393,-0.03393 0.01622,0.04054 0.01423,0.08898 -0.0044,0.10764 -0.01866,0.01866 -0.03194,-0.01451 -0.0295,-0.07371 z m 0,-0.336958 c 0.0027,-0.06542 0.016,-0.07873 0.03393,-0.03393 0.01622,0.04054 0.01423,0.08898 -0.0044,0.107639 -0.01866,0.01866 -0.03194,-0.01451 -0.0295,-0.07371 z M 4.1648094,20.84934 c 0.1320898,-0.01186 0.3342648,-0.0117 0.4492776,3.93e-4 0.1150134,0.01207 0.00694,0.02177 -0.240163,0.02157 -0.2471028,-2.25e-4 -0.3412045,-0.01008 -0.2091146,-0.02194 z m 31.8987156,0 c 0.13209,-0.01186 0.334264,-0.0117 0.449277,3.93e-4 0.115013,0.01207 0.0069,0.02177 -0.240163,0.02157 -0.247102,-2.25e-4 -0.341204,-0.01008 -0.209114,-0.02194 z M 12.722508,20.722054 c 0,-0.07722 0.01275,-0.108809 0.02833,-0.0702 0.01558,0.03861 0.01558,0.101789 0,0.140399 -0.01558,0.03861 -0.02833,0.007 -0.02833,-0.0702 z m 6.004656,0.0234 c 0.0027,-0.06542 0.016,-0.07873 0.03393,-0.03393 0.01622,0.04054 0.01423,0.08898 -0.0044,0.10764 -0.01866,0.01866 -0.03193,-0.01451 -0.0295,-0.07371 z M 5.0759203,20.420052 c 0,-0.01166 0.044226,-0.05589 0.09828,-0.09828 0.089073,-0.06986 0.091059,-0.06787 0.021204,0.0212 -0.073365,0.09355 -0.1194832,0.123298 -0.119484,0.07708 z m 30.2946307,-0.161315 -0.164946,-0.182519 0.182519,0.164946 c 0.100385,0.09072 0.182519,0.172854 0.182519,0.182519 0,0.04339 -0.04634,0.0052 -0.200092,-0.164946 z m -16.695114,0.01404 c 0,-0.07722 0.01275,-0.108809 0.02833,-0.0702 0.01558,0.03861 0.01558,0.101789 0,0.140399 -0.01558,0.03861 -0.02833,0.007 -0.02833,-0.0702 z M 6.8097082,20.230657 c -0.069856,-0.08907 -0.06787,-0.09106 0.021203,-0.0212 0.054054,0.04239 0.098279,0.08662 0.098279,0.09828 0,0.04622 -0.046118,0.01647 -0.119482,-0.07708 z m 5.9689598,-0.01404 c 0,-0.07722 0.01275,-0.10881 0.02833,-0.0702 0.01558,0.03861 0.01558,0.10179 0,0.140399 -0.01558,0.03861 -0.02833,0.007 -0.02833,-0.0702 z m 20.938704,0.09112 c 0,-0.01166 0.04423,-0.05589 0.09828,-0.09828 0.08907,-0.06986 0.09106,-0.06787 0.0212,0.0212 -0.07337,0.09355 -0.119484,0.123297 -0.119484,0.07708 z M 6.0201055,19.897455 c 0.040541,-0.01622 0.088978,-0.01423 0.1076396,0.0044 0.018661,0.01866 -0.014508,0.03193 -0.07371,0.0295 -0.065423,-0.0027 -0.07873,-0.016 -0.03393,-0.03393 z M 18.619278,19.767339 c 0,-0.07722 0.01275,-0.108809 0.02833,-0.0702 0.01558,0.03861 0.01558,0.10179 0,0.1404 -0.01558,0.03861 -0.02833,0.007 -0.02833,-0.0702 z m -5.784451,-0.05616 c 0,-0.07722 0.01275,-0.108809 0.02833,-0.0702 0.01558,0.03861 0.01558,0.101789 0,0.140399 -0.01558,0.03861 -0.02833,0.007 -0.02833,-0.0702 z m 5.728291,-0.449277 c 0,-0.07722 0.01275,-0.10881 0.02833,-0.0702 0.01558,0.03861 0.01558,0.10179 0,0.140399 -0.01558,0.03861 -0.02833,0.007 -0.02833,-0.0702 z m -5.672131,-0.05616 c 0,-0.07722 0.01275,-0.108809 0.02833,-0.0702 0.01558,0.03861 0.01558,0.10179 0,0.1404 -0.01558,0.03861 -0.02833,0.007 -0.02833,-0.0702 z m 5.615971,-0.449278 c 0,-0.07722 0.01275,-0.108809 0.02833,-0.0702 0.01558,0.03861 0.01558,0.101789 0,0.140399 -0.01558,0.03861 -0.02833,0.007 -0.02833,-0.0702 z m -5.564244,-0.03276 c 0.0027,-0.06542 0.016,-0.07873 0.03393,-0.03393 0.01622,0.04054 0.01423,0.08898 -0.0044,0.107639 -0.01866,0.01866 -0.03194,-0.01451 -0.0295,-0.07371 z m 0.06059,-0.472678 c 0,-0.07722 0.01275,-0.10881 0.02833,-0.0702 0.01558,0.03861 0.01558,0.10179 0,0.1404 -0.01558,0.03861 -0.02833,0.007 -0.02833,-0.0702 z m 5.447491,0 c 0,-0.07722 0.01275,-0.10881 0.02833,-0.0702 0.01558,0.03861 0.01558,0.10179 0,0.1404 -0.01558,0.03861 -0.02833,0.007 -0.02833,-0.0702 z M 13.059466,17.74559 c 0,-0.07722 0.01275,-0.10881 0.02833,-0.0702 0.01558,0.03861 0.01558,0.101789 0,0.140399 -0.01558,0.03861 -0.02833,0.007 -0.02833,-0.0702 z m 5.330739,0.0234 c 0.0027,-0.06542 0.016,-0.07873 0.03393,-0.03393 0.01622,0.04054 0.01423,0.08898 -0.0044,0.107639 -0.01866,0.01866 -0.03194,-0.01451 -0.0295,-0.07371 z m -2.988062,-0.402479 c -0.06986,-0.08907 -0.06787,-0.09106 0.0212,-0.0212 0.05405,0.04239 0.09828,0.08662 0.09828,0.09828 0,0.04622 -0.04612,0.01647 -0.119483,-0.07708 z m 2.936336,-0.0702 c 0,-0.07722 0.01275,-0.10881 0.02833,-0.0702 0.01558,0.03861 0.01558,0.10179 0,0.140399 -0.01558,0.03861 -0.02833,0.007 -0.02833,-0.0702 z m -5.222853,-0.05616 c 0,-0.07722 0.01275,-0.108809 0.02833,-0.0702 0.01558,0.03861 0.01558,0.101789 0,0.140399 -0.01558,0.03861 -0.02833,0.007 -0.02833,-0.0702 z m 2.185795,-0.145079 c 0.0027,-0.06542 0.016,-0.07873 0.03393,-0.03393 0.01622,0.04054 0.01423,0.08898 -0.0044,0.10764 -0.01866,0.01866 -0.03194,-0.01451 -0.0295,-0.07371 z m 2.980898,-0.304199 c 0,-0.07722 0.01275,-0.108809 0.02833,-0.0702 0.01558,0.03861 0.01558,0.101789 0,0.140399 -0.01558,0.03861 -0.02833,0.007 -0.02833,-0.0702 z m -5.110533,-0.05616 c 0,-0.07722 0.01275,-0.10881 0.02833,-0.0702 0.01558,0.03861 0.01558,0.10179 0,0.140399 -0.01558,0.03861 -0.02833,0.007 -0.02833,-0.0702 z m 5.054374,-0.449278 c 0,-0.07722 0.01275,-0.108809 0.02833,-0.0702 0.01558,0.03861 0.01558,0.10179 0,0.1404 -0.01558,0.03861 -0.02833,0.007 -0.02833,-0.0702 z m -4.998215,-0.05616 c 0,-0.07722 0.01275,-0.108809 0.02833,-0.0702 0.01558,0.03861 0.01558,0.101789 0,0.140399 -0.01558,0.03861 -0.02833,0.007 -0.02833,-0.0702 z M 18.17,15.78 c 0,-0.07722 0.01275,-0.10881 0.02833,-0.0702 0.01558,0.03861 0.01558,0.10179 0,0.140399 -0.01558,0.03861 -0.02833,0.007 -0.02833,-0.0702 z m -4.890328,-0.03276 c 0.0027,-0.06542 0.016,-0.07873 0.03393,-0.03393 0.01622,0.04054 0.01423,0.08898 -0.0044,0.10764 -0.01866,0.01866 -0.03193,-0.01451 -0.0295,-0.07371 z m 0.06059,-0.472678 c 0,-0.07722 0.01275,-0.108809 0.02833,-0.0702 0.01558,0.03861 0.01558,0.101789 0,0.140399 -0.01558,0.03861 -0.02833,0.007 -0.02833,-0.0702 z m 4.769142,0.0234 c 0.0027,-0.06542 0.016,-0.07873 0.03393,-0.03393 0.01622,0.04054 0.01423,0.08898 -0.0044,0.10764 -0.01866,0.01866 -0.03193,-0.01451 -0.0295,-0.07371 z m -2.807986,-0.168479 c 0.0027,-0.06542 0.016,-0.07873 0.03393,-0.03393 0.01622,0.04054 0.01423,0.08898 -0.0044,0.10764 -0.01866,0.01866 -0.03194,-0.01451 -0.0295,-0.07371 z M 3.564042,15.017164 c 0.0027,-0.06542 0.016002,-0.07873 0.033929,-0.03393 0.016223,0.04054 0.014228,0.08898 -0.00443,0.107639 -0.018662,0.01866 -0.031935,-0.01451 -0.029496,-0.07371 z m 33.471187,0 c 0.0027,-0.06542 0.016,-0.07873 0.03393,-0.03393 0.01622,0.04054 0.01423,0.08898 -0.0044,0.107639 -0.01866,0.01866 -0.03194,-0.01451 -0.0295,-0.07371 z M 3.6157679,14.828599 c 0,-0.02907 0.024983,-0.06829 0.055517,-0.08716 0.031835,-0.01967 0.041249,0.0029 0.022071,0.05284 -0.037334,0.09729 -0.077588,0.115093 -0.077588,0.03431 z m 9.7806561,-0.05947 c 0,-0.07722 0.01275,-0.10881 0.02833,-0.0702 0.01558,0.03861 0.01558,0.10179 0,0.1404 -0.01558,0.03861 -0.02833,0.007 -0.02833,-0.0702 z m 4.656823,0.0234 c 0.0027,-0.06542 0.016,-0.07873 0.03393,-0.03393 0.01622,0.04054 0.01423,0.08898 -0.0044,0.10764 -0.01866,0.01866 -0.03194,-0.01451 -0.0295,-0.07371 z m 18.896919,-0.0069 c -0.03048,-0.08004 -0.02403,-0.08649 0.03144,-0.03144 0.03838,0.0381 0.05564,0.08341 0.03834,0.100701 -0.01729,0.01729 -0.04869,-0.01388 -0.06978,-0.06926 z m -18.948645,-0.46574 c 0,-0.07722 0.01275,-0.108809 0.02833,-0.0702 0.01558,0.03861 0.01558,0.101789 0,0.140399 -0.01558,0.03861 -0.02833,0.007 -0.02833,-0.0702 z m -4.548937,-0.05616 c 0,-0.07722 0.01275,-0.10881 0.02833,-0.0702 0.01558,0.03861 0.01558,0.101789 0,0.140399 -0.01558,0.03861 -0.02833,0.007 -0.02833,-0.0702 z m -7.5483079,-0.09824 c 0.7799179,-0.0088 2.0561474,-0.0088 2.8360653,0 0.779918,0.0088 0.1418033,0.01601 -1.4180327,0.01601 -1.5598359,0 -2.1979506,-0.0072 -1.4180326,-0.01601 z m 26.0019459,0 c 0.779918,-0.0088 2.056147,-0.0088 2.836065,0 0.779918,0.0088 0.141803,0.01601 -1.418033,0.01601 -1.559835,0 -2.19795,-0.0072 -1.418032,-0.01601 z M 17.945361,13.81441 c 0,-0.07722 0.01275,-0.10881 0.02833,-0.0702 0.01558,0.03861 0.01558,0.10179 0,0.140399 -0.01558,0.03861 -0.02833,0.007 -0.02833,-0.0702 z m -4.436617,-0.05616 c 0,-0.07722 0.01275,-0.108809 0.02833,-0.0702 0.01558,0.03861 0.01558,0.10179 0,0.1404 -0.01558,0.03861 -0.02833,0.007 -0.02833,-0.0702 z m 4.380457,-0.449278 c 0,-0.07722 0.01275,-0.108809 0.02833,-0.0702 0.01558,0.03861 0.01558,0.101789 0,0.140399 -0.01558,0.03861 -0.02833,0.007 -0.02833,-0.0702 z m -4.324297,-0.05616 c 0,-0.07722 0.01275,-0.10881 0.02833,-0.0702 0.01558,0.03861 0.01558,0.10179 0,0.140399 -0.01558,0.03861 -0.02833,0.007 -0.02833,-0.0702 z m 1.736517,-0.08892 c 0.0027,-0.06542 0.016,-0.07873 0.03393,-0.03393 0.01622,0.04054 0.01423,0.08898 -0.0044,0.10764 -0.01866,0.01866 -0.03194,-0.01451 -0.0295,-0.07371 z m 2.531621,-0.360358 c 0,-0.07722 0.01275,-0.108809 0.02833,-0.0702 0.01558,0.03861 0.01558,0.10179 0,0.1404 -0.01558,0.03861 -0.02833,0.007 -0.02833,-0.0702 z m -4.216412,-0.03276 c 0.0027,-0.06542 0.016,-0.07873 0.03393,-0.03393 0.01622,0.04054 0.01423,0.08898 -0.0044,0.10764 -0.01866,0.01866 -0.03194,-0.01451 -0.0295,-0.07371 z m 4.155819,-0.449277 c 0.0027,-0.06542 0.016,-0.07873 0.03393,-0.03393 0.01622,0.04054 0.01423,0.08898 -0.0044,0.107639 -0.01866,0.01866 -0.03193,-0.01451 -0.0295,-0.07371 z m -4.099659,-0.05616 c 0.0027,-0.06542 0.016,-0.07873 0.03393,-0.03393 0.01622,0.04054 0.01423,0.08898 -0.0044,0.10764 -0.01866,0.01866 -0.03193,-0.01451 -0.0295,-0.07371 z m 0.06059,-0.472678 c 0,-0.07722 0.01275,-0.108809 0.02833,-0.0702 0.01558,0.03861 0.01558,0.101789 0,0.140399 -0.01558,0.03861 -0.02833,0.007 -0.02833,-0.0702 z m 3.982906,0.0234 c 0.0027,-0.06542 0.016,-0.07873 0.03393,-0.03393 0.01622,0.04054 0.01423,0.08898 -0.0044,0.10764 -0.01866,0.01866 -0.03193,-0.01451 -0.0295,-0.07371 z m -0.05173,-0.472677 c 0,-0.07722 0.01275,-0.10881 0.02833,-0.0702 0.01558,0.03861 0.01558,0.101789 0,0.140399 -0.01558,0.03861 -0.02833,0.007 -0.02833,-0.0702 z m -3.87502,-0.05616 c 0,-0.07722 0.01275,-0.10881 0.02833,-0.0702 0.01558,0.03861 0.01558,0.10179 0,0.1404 -0.01558,0.03861 -0.02833,0.007 -0.02833,-0.0702 z m 1.511879,-0.08892 c 0.0027,-0.06542 0.016,-0.07873 0.03393,-0.03393 0.01622,0.04054 0.01423,0.08898 -0.0044,0.107639 -0.01866,0.01866 -0.03194,-0.01451 -0.0295,-0.07371 z m -2.583346,-0.11232 c 0.0027,-0.06542 0.016,-0.07873 0.03393,-0.03393 0.01622,0.04054 0.01423,0.08898 -0.0044,0.10764 -0.01866,0.01866 -0.03193,-0.01451 -0.0295,-0.07371 z m 4.890328,-0.248039 c 0,-0.07722 0.01275,-0.108809 0.02833,-0.0702 0.01558,0.03861 0.01558,0.101789 0,0.140399 -0.01558,0.03861 -0.02833,0.007 -0.02833,-0.0702 z m -3.762701,-0.05616 c 0,-0.07722 0.01275,-0.108809 0.02833,-0.0702 0.01558,0.03861 0.01558,0.101789 0,0.140399 -0.01558,0.03861 -0.02833,0.007 -0.02833,-0.0702 z m 3.706541,-0.449277 c 0,-0.07722 0.01275,-0.10881 0.02833,-0.0702 0.01558,0.03861 0.01558,0.10179 0,0.140399 -0.01558,0.03861 -0.02833,0.007 -0.02833,-0.0702 z m -3.650381,-0.05616 c 0,-0.07722 0.01275,-0.108809 0.02833,-0.0702 0.01558,0.03861 0.01558,0.10179 0,0.1404 -0.01558,0.03861 -0.02833,0.007 -0.02833,-0.0702 z m 3.594221,-0.4492776 c 0,-0.07722 0.01275,-0.1088094 0.02833,-0.0702 0.01558,0.03861 0.01558,0.1017895 0,0.1403993 -0.01558,0.03861 -0.02833,0.00702 -0.02833,-0.070199 z m -3.542495,-0.03276 c 0.0027,-0.065423 0.016,-0.07873 0.03393,-0.03393 0.01622,0.04054 0.01423,0.088978 -0.0044,0.1076396 -0.01866,0.018661 -0.03193,-0.014508 -0.0295,-0.07371 z m 4.605097,-0.1684791 c 0.0027,-0.065423 0.016,-0.07873 0.03393,-0.03393 0.01622,0.04054 0.01423,0.088978 -0.0044,0.1076397 -0.01866,0.018661 -0.03194,-0.014508 -0.0295,-0.07371 z M 17.43549,9.3450331 c 0.0027,-0.065423 0.016,-0.07873 0.03393,-0.03393 0.01622,0.04054 0.01423,0.088978 -0.0044,0.1076396 -0.01866,0.018661 -0.03194,-0.014508 -0.0295,-0.07371 z m -3.425742,-0.05616 c 0.0027,-0.065423 0.016,-0.07873 0.03393,-0.03393 0.01622,0.04054 0.01423,0.088978 -0.0044,0.1076396 -0.01866,0.018661 -0.03193,-0.014508 -0.0295,-0.07371 z m 1.291673,-0.05616 c 0.0027,-0.065423 0.016,-0.07873 0.03393,-0.03393 0.01622,0.04054 0.01423,0.088978 -0.0044,0.1076396 -0.01866,0.018661 -0.03194,-0.014508 -0.0295,-0.07371 z m 2.07791,-0.3369583 c 0.0027,-0.065423 0.016,-0.07873 0.03393,-0.03393 0.01622,0.04054 0.01423,0.088978 -0.0044,0.1076396 -0.01866,0.018661 -0.03194,-0.014508 -0.0295,-0.07371 z M 16.894006,8.0159198 16.72906,7.8334007 16.911579,7.9983468 c 0.170134,0.153753 0.208333,0.200092 0.164946,0.200092 -0.0097,0 -0.0918,-0.082133 -0.182519,-0.182519 z m -2.327095,-0.00716 c 0,-0.011662 0.04423,-0.055888 0.09828,-0.09828 0.08907,-0.069856 0.09106,-0.06787 0.0212,0.021203 -0.07337,0.093548 -0.119483,0.1232975 -0.119483,0.077076 z m 0.940675,-0.465268 c 0.03861,-0.015579 0.10179,-0.015579 0.1404,0 0.03861,0.015579 0.007,0.028326 -0.0702,0.028326 -0.07722,0 -0.108809,-0.012747 -0.0702,-0.028326 z m 0.336959,0 c 0.03861,-0.015579 0.101789,-0.015579 0.140399,0 0.03861,0.015579 0.007,0.028326 -0.0702,0.028326 -0.07722,0 -0.108809,-0.012747 -0.0702,-0.028326 z M 15.342617,6.4752843 c 0.04054,-0.016223 0.08898,-0.014228 0.10764,0.00443 0.01866,0.018662 -0.01451,0.031935 -0.07371,0.029496 -0.06542,-0.0027 -0.07873,-0.016002 -0.03393,-0.03393 z m 0.730077,0 c 0.04054,-0.016223 0.08898,-0.014228 0.107639,0.00443 0.01866,0.018662 -0.01451,0.031935 -0.07371,0.029496 -0.06542,-0.0027 -0.07873,-0.016002 -0.03393,-0.03393 z"
     id="path503"
     inkscape:connector-curvature="0" />
  <path
     style="opacity:1;fill:#989898;stroke-width:0.0561597;stop-opacity:1"
     d="m 15.268908,25.104778 c -0.918632,-0.110317 -1.70424,-0.497833 -2.392447,-1.180119 -0.536133,-0.531521 -0.829327,-0.999272 -1.037741,-1.65557 -0.241945,-0.761889 -0.235265,-0.943325 0.164466,-4.467342 0.201458,-1.776051 0.3808,-3.380815 0.398537,-3.566142 0.189717,-1.982294 0.61963,-5.5174075 0.707694,-5.819271 0.370525,-1.2700799 1.704178,-2.1108458 3.034984,-1.9133254 1.073336,0.159306 1.998276,0.9779478 2.264558,2.0043064 0.04808,0.185327 0.21358,1.4868283 0.367773,2.892225 0.154193,1.405397 0.461648,4.172667 0.683232,6.149488 0.372104,3.31965 0.398116,3.627407 0.340495,4.028617 -0.07648,0.532503 -0.278348,1.127146 -0.526196,1.549986 -0.303507,0.517794 -1.062108,1.234911 -1.602466,1.514834 -0.739289,0.382977 -1.632494,0.554828 -2.402889,0.462313 z m 1.232295,-1.12464 c 0.5663,-0.144835 0.989973,-0.389399 1.407211,-0.81231 0.533196,-0.540446 0.86941,-1.303226 0.871201,-1.976525 3.93e-4,-0.149981 -0.305431,-2.989418 -0.679623,-6.309861 C 17.360066,8.3155902 17.396619,8.5390941 16.986299,8.0717661 16.529115,7.5510623 15.65428,7.3909324 15.00599,7.7092906 c -0.175493,0.086179 -0.400384,0.2492935 -0.499759,0.3624755 -0.413885,0.47139 -0.375827,0.239848 -1.11471,6.7815959 -0.373296,3.304999 -0.67853,6.149093 -0.6783,6.320208 0.0012,0.892127 0.542962,1.866205 1.327601,2.387019 0.758045,0.503161 1.58326,0.643879 2.460381,0.419549 z m -1.238815,-1.961534 c -0.276864,-0.125729 -0.493456,-0.395082 -0.580369,-0.721747 -0.08097,-0.304311 -0.03209,-0.562768 0.165268,-0.873972 0.565181,-0.891199 1.982058,-0.460545 1.982058,0.602438 0,0.302625 -0.143316,0.658441 -0.335043,0.831821 -0.299713,0.271032 -0.835883,0.341306 -1.231914,0.16146 z m 0.238732,-4.614051 c -0.295209,-0.232212 -0.132738,-0.68856 0.245145,-0.68856 0.377883,0 0.540355,0.456348 0.245145,0.68856 -0.08139,0.06402 -0.1917,0.116395 -0.245145,0.116395 -0.05344,0 -0.16376,-0.05238 -0.245145,-0.116395 z m 0,-1.96559 c -0.295209,-0.232212 -0.132738,-0.68856 0.245145,-0.68856 0.377883,0 0.540355,0.456348 0.245145,0.68856 -0.08139,0.06402 -0.1917,0.116396 -0.245145,0.116396 -0.05344,0 -0.16376,-0.05238 -0.245145,-0.116396 z m 0,-1.96559 c -0.206545,-0.162468 -0.20466,-0.448618 0.004,-0.612779 0.26387,-0.207562 0.634225,-0.02502 0.634225,0.312605 0,0.197127 -0.207089,0.41657 -0.393118,0.41657 -0.05344,0 -0.16376,-0.05238 -0.245145,-0.116396 z m 0.004,-1.962415 c -0.208698,-0.164161 -0.210583,-0.450311 -0.004,-0.612779 0.08138,-0.06402 0.1917,-0.116396 0.245145,-0.116396 0.186029,0 0.393118,0.219443 0.393118,0.41657 0,0.337623 -0.370355,0.520167 -0.634227,0.312605 z M 15.633946,9.6181855 C 15.322608,9.5057847 15.24985,9.1302374 15.50112,8.9325889 c 0.08138,-0.064018 0.1917,-0.1163955 0.245145,-0.1163955 0.186029,0 0.393118,0.2194429 0.393118,0.4165697 0,0.2594618 -0.274513,0.4687921 -0.505437,0.3854224 z"
     id="path501"
     inkscape:connector-curvature="0" />
  <path
     style="opacity:1;fill:#6287a7;stroke-width:0.0561597;stop-opacity:1"
     d="m 10.060095,27.873301 c 0.03861,-0.01558 0.101789,-0.01558 0.140399,0 0.03861,0.01558 0.007,0.02833 -0.0702,0.02833 -0.07722,0 -0.108809,-0.01275 -0.0702,-0.02833 z m 20.385974,0 c 0.03861,-0.01558 0.10179,-0.01558 0.1404,0 0.03861,0.01558 0.007,0.02833 -0.0702,0.02833 -0.07722,0 -0.108809,-0.01275 -0.0702,-0.02833 z M 15.311027,25.119956 c 0.05405,-0.01412 0.142506,-0.01412 0.196559,0 0.05405,0.01413 0.0098,0.02568 -0.09828,0.02568 -0.108107,0 -0.152333,-0.01156 -0.09828,-0.02568 z m 0.673917,0 c 0.05405,-0.01412 0.142505,-0.01412 0.196559,0 0.05405,0.01413 0.0098,0.02568 -0.09828,0.02568 -0.108108,0 -0.152334,-0.01156 -0.09828,-0.02568 z m 0.480868,-0.05581 c 0.04054,-0.01622 0.08898,-0.01423 0.107639,0.0044 0.01866,0.01866 -0.01451,0.03193 -0.07371,0.0295 -0.06542,-0.0027 -0.07873,-0.016 -0.03393,-0.03393 z m -2.712819,-0.410271 c -0.01967,-0.03184 0.0029,-0.04125 0.05284,-0.02207 0.09729,0.03733 0.115093,0.07759 0.03431,0.07759 -0.02906,0 -0.06829,-0.02498 -0.08716,-0.05552 z m -0.484919,-0.323562 c -0.06986,-0.08907 -0.06787,-0.09106 0.0212,-0.0212 0.09355,0.07336 0.123297,0.119483 0.07708,0.119483 -0.01166,0 -0.05589,-0.04423 -0.09828,-0.09828 z m -0.444032,-0.393118 -0.30696,-0.322918 0.322918,0.30696 c 0.300001,0.285176 0.348645,0.338877 0.30696,0.338877 -0.0088,0 -0.15409,-0.145314 -0.322918,-0.322919 z m 5.814448,-0.01404 c 0.152117,-0.154439 0.289213,-0.280798 0.304657,-0.280798 0.01544,0 -0.09638,0.126359 -0.248497,0.280798 -0.152117,0.15444 -0.289212,0.280799 -0.304656,0.280799 -0.01544,0 0.09638,-0.126359 0.248496,-0.280799 z m -6.983017,-2.302548 c 0,-0.07722 0.01275,-0.108809 0.02833,-0.0702 0.01558,0.03861 0.01558,0.101789 0,0.140399 -0.01558,0.03861 -0.02833,0.007 -0.02833,-0.0702 z m 8.138725,-0.03276 c 0.0027,-0.06542 0.016,-0.07873 0.03393,-0.03393 0.01622,0.04054 0.01423,0.08898 -0.0044,0.107639 -0.01866,0.01866 -0.03194,-0.01451 -0.0295,-0.07371 z m 0.0065,-0.950036 c 0.0011,-0.09266 0.01373,-0.123772 0.02797,-0.06913 0.01424,0.05464 0.0133,0.130458 -0.0021,0.16848 -0.01538,0.03802 -0.02703,-0.0067 -0.02589,-0.09935 z m -8.14524,-0.02808 c 0,-0.07722 0.01275,-0.10881 0.02833,-0.0702 0.01558,0.03861 0.01558,0.101789 0,0.140399 -0.01558,0.03861 -0.02833,0.007 -0.02833,-0.0702 z m 8.086999,-0.449278 c 0,-0.07722 0.01275,-0.10881 0.02833,-0.0702 0.01558,0.03861 0.01558,0.10179 0,0.140399 -0.01558,0.03861 -0.02833,0.007 -0.02833,-0.0702 z m -8.030839,-0.05616 c 0,-0.07722 0.01275,-0.108809 0.02833,-0.0702 0.01558,0.03861 0.01558,0.10179 0,0.1404 -0.01558,0.03861 -0.02833,0.007 -0.02833,-0.0702 z m 0.05824,-0.477357 c 0.0011,-0.09266 0.01373,-0.123773 0.02797,-0.06913 0.01424,0.05464 0.0133,0.130457 -0.0021,0.168479 -0.01538,0.03802 -0.02703,-0.0067 -0.02589,-0.09935 z m 7.916438,0.02808 c 0,-0.07722 0.01275,-0.108809 0.02833,-0.0702 0.01558,0.03861 0.01558,0.101789 0,0.140399 -0.01558,0.03861 -0.02833,0.007 -0.02833,-0.0702 z M 11.826034,19.1215 c 0.0011,-0.09266 0.01373,-0.123772 0.02797,-0.06913 0.01424,0.05464 0.0133,0.130458 -0.0021,0.168479 -0.01538,0.03802 -0.02703,-0.0067 -0.02589,-0.09935 z m 7.804118,0.02808 c 0,-0.07722 0.01275,-0.108809 0.02833,-0.0702 0.01558,0.03861 0.01558,0.10179 0,0.1404 -0.01558,0.03861 -0.02833,0.007 -0.02833,-0.0702 z m -7.75004,-0.505437 c 0,-0.07722 0.01275,-0.10881 0.02833,-0.0702 0.01558,0.03861 0.01558,0.101789 0,0.140399 -0.01558,0.03861 -0.02833,0.007 -0.02833,-0.0702 z m 7.693881,0 c 0,-0.07722 0.01275,-0.10881 0.02833,-0.0702 0.01558,0.03861 0.01558,0.101789 0,0.140399 -0.01558,0.03861 -0.02833,0.007 -0.02833,-0.0702 z m -0.05408,-0.477358 c 0.0011,-0.09266 0.01373,-0.123773 0.02797,-0.06913 0.01424,0.05464 0.0133,0.130458 -0.0021,0.168479 -0.01538,0.03802 -0.02703,-0.0067 -0.02589,-0.09935 z m -7.583642,-0.02808 c 0,-0.07722 0.01275,-0.108809 0.02833,-0.0702 0.01558,0.03861 0.01558,0.101789 0,0.140399 -0.01558,0.03861 -0.02833,0.007 -0.02833,-0.0702 z m 7.527482,-0.477357 c 0.0011,-0.09266 0.01373,-0.123773 0.02797,-0.06913 0.01424,0.05464 0.0133,0.130457 -0.0021,0.168479 -0.01538,0.03802 -0.02703,-0.0067 -0.02589,-0.09935 z m -7.471322,-0.02808 c 0,-0.07722 0.01275,-0.10881 0.02833,-0.0702 0.01558,0.03861 0.01558,0.10179 0,0.1404 -0.01558,0.03861 -0.02833,0.007 -0.02833,-0.0702 z m 7.413081,-0.449278 c 0,-0.07722 0.01275,-0.108809 0.02833,-0.0702 0.01558,0.03861 0.01558,0.101789 0,0.140399 -0.01558,0.03861 -0.02833,0.007 -0.02833,-0.0702 z M 12.04859,17.12783 c 0,-0.07722 0.01275,-0.108809 0.02833,-0.0702 0.01558,0.03861 0.01558,0.101789 0,0.140399 -0.01558,0.03861 -0.02833,0.007 -0.02833,-0.0702 z m 0.05824,-0.477357 c 0.0011,-0.09266 0.01373,-0.123773 0.02797,-0.06913 0.01424,0.05464 0.0133,0.130457 -0.0021,0.168479 -0.01538,0.03802 -0.02703,-0.0067 -0.02589,-0.09935 z m 7.242522,0.02808 c 0,-0.07722 0.01275,-0.10881 0.02833,-0.0702 0.01558,0.03861 0.01558,0.10179 0,0.140399 -0.01558,0.03861 -0.02833,0.007 -0.02833,-0.0702 z m -7.188443,-0.505438 c 0,-0.07722 0.01275,-0.108809 0.02833,-0.0702 0.01558,0.03861 0.01558,0.101789 0,0.140399 -0.01558,0.03861 -0.02833,0.007 -0.02833,-0.0702 z m 7.132283,0 c 0,-0.07722 0.01275,-0.108809 0.02833,-0.0702 0.01558,0.03861 0.01558,0.101789 0,0.140399 -0.01558,0.03861 -0.02833,0.007 -0.02833,-0.0702 z m -7.076123,-0.505437 c 0,-0.07722 0.01275,-0.108809 0.02833,-0.0702 0.01558,0.03861 0.01558,0.10179 0,0.1404 -0.01558,0.03861 -0.02833,0.007 -0.02833,-0.0702 z m 7.019963,0 c 0,-0.07722 0.01275,-0.108809 0.02833,-0.0702 0.01558,0.03861 0.01558,0.10179 0,0.1404 -0.01558,0.03861 -0.02833,0.007 -0.02833,-0.0702 z M 19.180875,15.2184 c 0,-0.07722 0.01275,-0.108809 0.02833,-0.0702 0.01558,0.03861 0.01558,0.101789 0,0.140399 -0.01558,0.03861 -0.02833,0.007 -0.02833,-0.0702 z M 12.27323,15.16224 c 0,-0.07722 0.01275,-0.10881 0.02833,-0.0702 0.01558,0.03861 0.01558,0.101789 0,0.140399 -0.01558,0.03861 -0.02833,0.007 -0.02833,-0.0702 z m 6.851485,-0.449278 c 0,-0.07722 0.01275,-0.108809 0.02833,-0.0702 0.01558,0.03861 0.01558,0.10179 0,0.1404 -0.01558,0.03861 -0.02833,0.007 -0.02833,-0.0702 z m -6.795325,-0.05616 c 0,-0.07722 0.01275,-0.108809 0.02833,-0.0702 0.01558,0.03861 0.01558,0.101789 0,0.140399 -0.01558,0.03861 -0.02833,0.007 -0.02833,-0.0702 z m 6.731158,-0.407158 c -8.14e-4,-0.09305 0.303161,-0.09755 5.713391,-0.08451 l 5.71425,0.01377 -5.668983,0.01458 c -4.449404,0.01145 -5.678537,0.02963 -5.713391,0.08451 -0.03155,0.04968 -0.04466,0.04147 -0.04527,-0.02835 z m -7.77898,-0.04212 -1.123194,-0.03168 1.137234,-0.01224 c 0.728877,-0.0078 1.137234,0.0079 1.137234,0.04392 0,0.03089 -0.0063,0.05065 -0.01404,0.04392 -0.0077,-0.0067 -0.519477,-0.0265 -1.137234,-0.04392 z"
     id="path499"
     inkscape:connector-curvature="0" />
  <path
     style="opacity:1;fill:#016fd7;stroke-width:0.0561597;stop-opacity:1"
     d="m 14.73539,26.454865 c -0.61608,-0.13754 -0.874875,-0.233661 -1.443429,-0.536115 -1.380063,-0.734152 -2.357612,-1.969675 -2.778632,-3.511907 -0.111656,-0.409004 -0.129995,-0.606023 -0.128075,-1.375913 0.0027,-1.090443 0.130813,-1.650702 0.581547,-2.543601 0.174556,-0.345792 0.750293,-1.147836 0.951912,-1.326083 0.120028,-0.106114 0.121002,-0.105886 0.119816,0.02808 -6.57e-4,0.07428 -0.09571,0.969035 -0.211237,1.988334 -0.239986,2.117494 -0.236788,2.459658 0.03001,3.210397 0.832097,2.341471 3.425527,3.419556 5.657999,2.352022 1.132962,-0.541764 1.916219,-1.492533 2.218714,-2.693217 0.156707,-0.622018 0.142922,-1.022586 -0.112138,-3.25836 -0.123082,-1.078897 -0.214127,-1.971289 -0.202323,-1.983092 0.09128,-0.09128 0.973545,0.948001 1.299351,1.530598 l 0.203725,0.364294 0.570804,0.0018 c 1.187381,0.0038 1.784141,0.186587 2.306893,0.706512 0.895062,0.890222 0.897656,2.359872 0.0057,3.251788 -0.519383,0.519383 -1.082353,0.698547 -2.199993,0.700143 l -0.682803,9.77e-4 -0.206201,0.375137 c -0.705617,1.283713 -1.986979,2.277133 -3.438551,2.665855 -0.639622,0.171287 -1.894581,0.197103 -2.543124,0.05232 z"
     id="path497"
     inkscape:connector-curvature="0" />
  <path
     style="opacity:1;fill:#01498b;stroke-width:0.0561597;stop-opacity:1"
     d="M 10.002319,27.830736 C 9.6833921,27.744963 9.4793117,27.571092 9.337883,27.264658 9.239116,27.050659 9.2342638,26.75674 9.235437,21.05901 9.236737,14.721218 9.232617,14.825855 9.4931578,14.532835 9.7437239,14.25104 9.9618005,14.210081 11.218604,14.208759 l 1.172549,-0.0012 -0.03319,0.266759 c -0.01825,0.146717 -0.08889,0.772196 -0.156964,1.389953 l -0.123778,1.123194 -0.231412,0.252719 c -0.491929,0.537218 -0.914687,1.222638 -1.151001,1.866119 -0.260755,0.710034 -0.307248,0.999103 -0.309557,1.924661 -0.0027,1.073052 0.09668,1.526993 0.528565,2.414868 0.580902,1.194232 1.424532,2.024625 2.654007,2.612363 0.806588,0.385583 1.220703,0.469414 2.318839,0.469414 0.805002,0 1.023263,-0.01898 1.391849,-0.121044 1.470513,-0.407188 2.734144,-1.388324 3.438551,-2.669836 l 0.206201,-0.375135 0.682803,-9.77e-4 c 1.11764,-0.0016 1.68061,-0.18076 2.199993,-0.700143 0.891916,-0.891916 0.889322,-2.361566 -0.0057,-3.251788 C 23.27757,18.888725 22.68081,18.70596 21.493429,18.702138 L 20.922625,18.700301 20.7189,18.336007 C 20.467507,17.886473 19.942165,17.21896 19.628401,16.95039 l -0.235044,-0.201189 -0.138002,-1.172559 c -0.0759,-0.644907 -0.13834,-1.216784 -0.138754,-1.270838 -7.13e-4,-0.09297 0.309378,-0.09821 5.741577,-0.09705 5.519747,0.0012 5.751438,0.0054 5.977295,0.107911 0.147823,0.06711 0.293619,0.195302 0.393118,0.345644 l 0.158153,0.238966 0.01563,6.04129 c 0.01734,6.704549 0.03666,6.337831 -0.351803,6.678906 -0.113439,0.0996 -0.303153,0.190084 -0.476477,0.227256 -0.448822,0.09625 -20.211241,0.07897 -20.571773,-0.018 z"
     id="path495"
     inkscape:connector-curvature="0" />
</svg>
