<?xml version="1.0" encoding="UTF-8" standalone="no"?>
<svg
   xmlns:dc="http://purl.org/dc/elements/1.1/"
   xmlns:cc="http://creativecommons.org/ns#"
   xmlns:rdf="http://www.w3.org/1999/02/22-rdf-syntax-ns#"
   xmlns:svg="http://www.w3.org/2000/svg"
   xmlns="http://www.w3.org/2000/svg"
   xmlns:sodipodi="http://sodipodi.sourceforge.net/DTD/sodipodi-0.dtd"
   xmlns:inkscape="http://www.inkscape.org/namespaces/inkscape"
   inkscape:version="1.0beta1 (32d4812, 2019-09-19)"
   sodipodi:docname="continuousServo-illustration.svg"
   id="svg1147"
   version="1.1"
   viewBox="0 0 116 95"
   height="95px"
   width="116px">
  <metadata
     id="metadata1151">
    <rdf:RDF>
      <cc:Work
         rdf:about="">
        <dc:format>image/svg+xml</dc:format>
        <dc:type
           rdf:resource="http://purl.org/dc/dcmitype/StillImage" />
        <dc:title>microbit-illustration</dc:title>
      </cc:Work>
    </rdf:RDF>
  </metadata>
  <sodipodi:namedview
     inkscape:current-layer="svg1147"
     inkscape:window-maximized="0"
     inkscape:window-y="23"
     inkscape:window-x="0"
     inkscape:cy="49.954981"
     inkscape:cx="44.110842"
     inkscape:zoom="6.6105263"
     showgrid="false"
     id="namedview1149"
     inkscape:window-height="864"
     inkscape:window-width="1393"
     inkscape:pageshadow="2"
     inkscape:pageopacity="0"
     guidetolerance="10"
     gridtolerance="10"
     objecttolerance="10"
     borderopacity="1"
     inkscape:document-rotation="0"
     bordercolor="#666666"
     pagecolor="#ffffff" />
  <!-- Generator: Sketch 50.2 (55047) - http://www.bohemiancoding.com/sketch -->
  <title
     id="title614">microbit-illustration</title>
  <desc
     id="desc616">Created with Sketch.</desc>
  <defs
     id="defs618" />
  <g
     transform="matrix(3.4032765,0,0,3.4032765,-329.46093,-399.58177)"
     id="g1207">
    <path
       style="opacity:1;fill:#e4e4e4;stroke-width:0.0561597;stop-opacity:1"
       d="m 108.81932,136.03183 c -1.2856,-0.1302 -2.40472,-1.19778 -2.61661,-2.49611 -0.0598,-0.36631 -0.0163,-0.81511 0.63811,-6.57997 0.62655,-5.5198 0.7162,-6.21474 0.83145,-6.44551 0.34326,-0.6873 1.0626,-1.05273 1.80622,-0.91757 0.3794,0.069 0.64272,0.20932 0.88924,0.474 0.28324,0.30411 0.36632,0.45621 0.44067,0.80674 0.0358,0.16894 0.36927,2.99863 0.74097,6.28818 0.75726,6.70183 0.73921,6.34971 0.36652,7.15385 -0.5458,1.17764 -1.76167,1.85159 -3.09657,1.71639 z m 0.66141,-1.90981 c 0.44438,-0.12341 0.82304,-0.62512 0.82559,-1.09388 0.002,-0.29779 -0.19759,-0.67853 -0.4673,-0.89316 -0.19915,-0.15848 -0.24969,-0.17173 -0.65467,-0.17173 -0.40497,0 -0.45551,0.0133 -0.65466,0.17173 -0.1187,0.0944 -0.27451,0.28399 -0.34625,0.4212 -0.24478,0.46815 -0.0837,1.09218 0.36044,1.39653 0.31737,0.21746 0.5876,0.2663 0.93685,0.16931 z m -0.10233,-4.63661 c 0.05,-0.0192 0.12836,-0.1073 0.17413,-0.19582 0.073,-0.1412 0.0732,-0.18488 0.002,-0.35623 -0.13667,-0.32711 -0.57228,-0.34518 -0.73501,-0.0305 -0.19427,0.37568 0.15372,0.73816 0.55925,0.58254 z m 0,-1.96559 c 0.05,-0.0192 0.12836,-0.1073 0.17413,-0.19582 0.073,-0.1412 0.0732,-0.18488 0.002,-0.35623 -0.13811,-0.33055 -0.57247,-0.34481 -0.73824,-0.0242 -0.18953,0.36651 0.16434,0.72907 0.56248,0.57629 z m 0.0284,-1.98567 c 0.16205,-0.0867 0.22706,-0.34298 0.1397,-0.55073 -0.13132,-0.31232 -0.57019,-0.31561 -0.73057,-0.005 -0.19683,0.38063 0.2076,0.76132 0.59087,0.5562 z m 0,-1.96559 c 0.16205,-0.0867 0.22706,-0.34298 0.1397,-0.55073 -0.13132,-0.31232 -0.57019,-0.31561 -0.73057,-0.005 -0.19683,0.38063 0.2076,0.76132 0.59087,0.5562 z m 0,-1.96559 c 0.0565,-0.0302 0.13013,-0.1336 0.16362,-0.22968 0.17091,-0.49026 -0.51607,-0.78757 -0.75449,-0.32653 -0.19683,0.38063 0.2076,0.76133 0.59087,0.55621 z m -10.731455,12.19951 c -0.06986,-0.0891 -0.06787,-0.0911 0.0212,-0.0212 0.05405,0.0424 0.09828,0.0866 0.09828,0.0983 0,0.0462 -0.04612,0.0165 -0.119482,-0.0771 z m 30.136845,-0.014 c 0.0559,-0.0618 0.11429,-0.11232 0.12973,-0.11232 0.0154,0 -0.0177,0.0505 -0.0736,0.11232 -0.0559,0.0618 -0.11428,0.11232 -0.12973,0.11232 -0.0154,0 0.0177,-0.0505 0.0736,-0.11232 z"
       id="path507"
       inkscape:connector-curvature="0" />
    <path
       style="opacity:1;fill:#67b4fc;stroke-width:0.0561597;stop-opacity:1"
       d="m 97.587499,139.76521 c -0.226731,-0.11822 -0.358463,-0.24313 -0.469192,-0.44491 -0.08169,-0.14886 -0.09447,-0.49049 -0.109096,-2.91675 -0.0116,-1.92486 0.0022,-2.79332 0.04592,-2.89898 0.08548,-0.20637 0.272245,-0.27773 0.726856,-0.27773 0.487696,0 0.544618,0.0235 0.67495,0.279 0.332168,0.65111 1.1126,0.85978 1.679543,0.44908 0.98844,-0.71601 0.28677,-2.26739 -0.909471,-2.01084 -0.299013,0.0641 -0.65931,0.36861 -0.836743,0.70712 l -0.09567,0.18252 h -0.501828 c -0.410443,0 -0.525971,-0.0196 -0.634409,-0.10737 l -0.13258,-0.10736 v -2.82698 -2.82698 l 0.153646,-0.26136 c 0.106698,-0.18151 0.227945,-0.29733 0.396808,-0.37908 0.236844,-0.11465 0.315316,-0.11771 3.019377,-0.1175 2.73117,2.2e-4 2.77348,0.002 2.60773,0.10485 -0.22363,0.13889 -0.4002,0.33662 -0.47361,0.53039 -0.0411,0.10841 -0.0599,2.05484 -0.0599,6.19341 0,4.93144 0.0138,6.06837 0.0756,6.21603 0.0731,0.17465 0.22382,0.34455 0.45792,0.51605 0.0992,0.0727 -0.21194,0.0825 -2.66759,0.0837 -2.413542,0.001 -2.802092,-0.0101 -2.948259,-0.0863 z m 26.761591,-0.0282 c 0.10899,-0.0637 0.26062,-0.20697 0.33696,-0.31837 l 0.13878,-0.20255 v -6.18605 -6.18606 l -0.16094,-0.21101 c -0.0885,-0.11605 -0.24015,-0.2593 -0.33696,-0.31833 -0.17481,-0.1066 -0.15698,-0.10733 2.6002,-0.10754 2.70406,-2.3e-4 2.78254,0.003 3.01938,0.1175 0.16886,0.0817 0.29011,0.19757 0.39681,0.37908 l 0.15364,0.26136 v 2.82698 2.82698 l -0.13258,0.10736 c -0.10843,0.0878 -0.22396,0.10737 -0.6344,0.10737 h -0.50183 l -0.0957,-0.17677 c -0.27203,-0.50267 -0.63061,-0.73806 -1.11763,-0.73368 -0.6117,0.005 -1.09042,0.48326 -1.09591,1.09372 -0.007,0.76356 0.71833,1.32403 1.43523,1.10924 0.25181,-0.0754 0.61905,-0.41383 0.77831,-0.71717 l 0.0957,-0.18222 h 0.44924 c 0.55648,0 0.71778,0.0674 0.79536,0.33217 0.0387,0.13206 0.053,1.11928 0.0416,2.86893 -0.0195,2.98476 -0.0121,2.92909 -0.42803,3.2464 l -0.19828,0.15127 -2.86856,0.0136 -2.86857,0.0136 z"
       id="path505"
       inkscape:connector-curvature="0" />
    <path
       style="opacity:1;fill:#a1b1c0;stroke-width:0.0561597;stop-opacity:1"
       d="m 99.230045,139.86777 c 0.779915,-0.009 2.056145,-0.009 2.836065,0 0.77992,0.009 0.1418,0.016 -1.41803,0.016 -1.559838,0 -2.197952,-0.007 -1.418035,-0.016 z m 26.226585,0 c 0.77992,-0.009 2.05615,-0.009 2.83607,0 0.77991,0.009 0.1418,0.016 -1.41804,0.016 -1.55983,0 -2.19795,-0.007 -1.41803,-0.016 z m -28.454499,-0.83308 c 0.0027,-0.0654 0.016,-0.0787 0.03393,-0.0339 0.01622,0.0405 0.01423,0.089 -0.0044,0.10764 -0.01866,0.0187 -0.03194,-0.0145 -0.0295,-0.0737 z m 33.471189,0 c 0.003,-0.0654 0.016,-0.0787 0.0339,-0.0339 0.0162,0.0405 0.0142,0.089 -0.004,0.10764 -0.0187,0.0187 -0.0319,-0.0145 -0.0295,-0.0737 z m -21.61188,-2.98242 c 0.0541,-0.0141 0.1425,-0.0141 0.19656,0 0.054,0.0141 0.01,0.0257 -0.0983,0.0257 -0.10811,0 -0.15234,-0.0116 -0.0983,-0.0257 z m 0.44927,0 c 0.0541,-0.0141 0.14251,-0.0141 0.19656,0 0.054,0.0141 0.01,0.0257 -0.0983,0.0257 -0.1081,0 -0.15233,-0.0116 -0.0983,-0.0257 z m -2.29115,-0.87388 -0.22199,-0.23868 0.23868,0.222 c 0.22196,0.20645 0.26448,0.25536 0.22199,0.25536 -0.009,0 -0.11658,-0.10741 -0.23868,-0.23868 z m 4.27078,0.014 c 0.12065,-0.12355 0.23199,-0.22464 0.24744,-0.22464 0.0154,0 -0.0706,0.10109 -0.19128,0.22464 -0.12064,0.12355 -0.23199,0.22464 -0.24743,0.22464 -0.0154,0 0.0706,-0.10109 0.19127,-0.22464 z m -11.947975,-1.05051 c 0.0695,-0.0134 0.183221,-0.0134 0.252719,0 0.0695,0.0134 0.01264,0.0243 -0.12636,0.0243 -0.138995,0 -0.195857,-0.011 -0.126359,-0.0243 z m 9.743715,9.2e-4 c 0.0541,-0.0141 0.1425,-0.0141 0.19655,0 0.0541,0.0141 0.01,0.0257 -0.0983,0.0257 -0.1081,0 -0.15233,-0.0116 -0.0983,-0.0257 z m 18.84158,-9.2e-4 c 0.0695,-0.0134 0.18322,-0.0134 0.25272,0 0.0695,0.0134 0.0126,0.0243 -0.12636,0.0243 -0.139,0 -0.19586,-0.011 -0.12636,-0.0243 z m -27.6727,-0.3254 c 0.0725,-0.0772 0.14453,-0.1404 0.15998,-0.1404 0.0154,0 -0.0313,0.0632 -0.10382,0.1404 -0.0725,0.0772 -0.14453,0.1404 -0.15998,0.1404 -0.0154,0 0.0313,-0.0632 0.10382,-0.1404 z m 26.95241,-0.014 -0.13615,-0.15444 0.15444,0.13615 c 0.0849,0.0749 0.15444,0.14438 0.15444,0.15444 0,0.044 -0.0455,0.008 -0.17273,-0.13615 z m 3.24642,-0.29034 c -0.0244,-0.0934 -0.0171,-0.11534 0.0246,-0.0737 0.0326,0.0326 0.0483,0.0925 0.0348,0.133 -0.014,0.0421 -0.0395,0.0166 -0.0593,-0.0593 z m -33.456093,-10e-4 c 0,-0.0291 0.02498,-0.0683 0.05552,-0.0872 0.03184,-0.0197 0.04125,0.003 0.02207,0.0528 -0.03733,0.0973 -0.07759,0.11509 -0.07759,0.0343 z m 15.167553,-0.0361 c 0.003,-0.0654 0.016,-0.0787 0.0339,-0.0339 0.0162,0.0405 0.0142,0.089 -0.004,0.10764 -0.0187,0.0187 -0.0319,-0.0145 -0.0295,-0.0737 z m -14.95789,-0.19885 c 0.0381,-0.0384 0.08341,-0.0556 0.100701,-0.0383 0.01729,0.0173 -0.01388,0.0487 -0.06926,0.0698 -0.08004,0.0305 -0.08649,0.024 -0.03144,-0.0314 z m 33.03689,0.007 c -0.0506,-0.0327 -0.0575,-0.0548 -0.0173,-0.0553 0.0368,-4.5e-4 0.0825,0.0244 0.10159,0.0553 0.0431,0.0697 0.0237,0.0697 -0.0842,0 z m -19.98843,-0.0889 c 0.003,-0.0654 0.016,-0.0787 0.0339,-0.0339 0.0162,0.0405 0.0142,0.089 -0.004,0.10764 -0.0187,0.0187 -0.0319,-0.0145 -0.0295,-0.0737 z m 0,-0.33695 c 0.003,-0.0654 0.016,-0.0787 0.0339,-0.0339 0.0162,0.0405 0.0142,0.089 -0.004,0.10763 -0.0187,0.0187 -0.0319,-0.0145 -0.0295,-0.0737 z m -12.652922,-0.008 c 0.13209,-0.0119 0.334265,-0.0117 0.449278,3.9e-4 0.115013,0.0121 0.0069,0.0218 -0.240163,0.0216 -0.247103,-2.3e-4 -0.341205,-0.0101 -0.209115,-0.0219 z m 31.898712,0 c 0.13209,-0.0119 0.33427,-0.0117 0.44928,3.9e-4 0.11501,0.0121 0.007,0.0218 -0.24016,0.0216 -0.2471,-2.3e-4 -0.34121,-0.0101 -0.20912,-0.0219 z m -23.34101,-0.12725 c 0,-0.0772 0.0127,-0.10881 0.0283,-0.0702 0.0156,0.0386 0.0156,0.10178 0,0.14039 -0.0156,0.0386 -0.0283,0.007 -0.0283,-0.0702 z m 6.00465,0.0234 c 0.003,-0.0654 0.016,-0.0787 0.0339,-0.0339 0.0162,0.0405 0.0142,0.089 -0.004,0.10764 -0.0187,0.0187 -0.0319,-0.0145 -0.0295,-0.0737 z M 98.514009,132.4194 c 0,-0.0117 0.04423,-0.0559 0.09828,-0.0983 0.08907,-0.0699 0.09106,-0.0679 0.0212,0.0212 -0.07336,0.0935 -0.119483,0.1233 -0.119484,0.0771 z m 30.294631,-0.16131 -0.16495,-0.18252 0.18252,0.16495 c 0.10039,0.0907 0.18252,0.17285 0.18252,0.18251 0,0.0434 -0.0463,0.005 -0.20009,-0.16494 z m -16.69511,0.014 c 0,-0.0772 0.0127,-0.10881 0.0283,-0.0702 0.0156,0.0386 0.0156,0.10179 0,0.1404 -0.0156,0.0386 -0.0283,0.007 -0.0283,-0.0702 z m -11.86573,-0.0421 c -0.0699,-0.0891 -0.0679,-0.0911 0.0212,-0.0212 0.054,0.0424 0.0983,0.0866 0.0983,0.0983 0,0.0462 -0.0461,0.0165 -0.11948,-0.0771 z m 5.96896,-0.014 c 0,-0.0772 0.0128,-0.10881 0.0283,-0.0702 0.0156,0.0386 0.0156,0.10179 0,0.1404 -0.0156,0.0386 -0.0283,0.007 -0.0283,-0.0702 z m 20.9387,0.0911 c 0,-0.0117 0.0442,-0.0559 0.0983,-0.0983 0.0891,-0.0699 0.0911,-0.0679 0.0212,0.0212 -0.0734,0.0935 -0.11948,0.1233 -0.11948,0.0771 z m -27.697266,-0.41028 c 0.04054,-0.0162 0.08898,-0.0142 0.10764,0.004 0.01866,0.0187 -0.01451,0.0319 -0.07371,0.0295 -0.06542,-0.003 -0.07873,-0.016 -0.03393,-0.0339 z m 12.599176,-0.13012 c 0,-0.0772 0.0127,-0.10881 0.0283,-0.0702 0.0156,0.0386 0.0156,0.10179 0,0.1404 -0.0156,0.0386 -0.0283,0.007 -0.0283,-0.0702 z m -5.78445,-0.0562 c 0,-0.0772 0.0127,-0.10881 0.0283,-0.0702 0.0156,0.0386 0.0156,0.10179 0,0.1404 -0.0156,0.0386 -0.0283,0.007 -0.0283,-0.0702 z m 5.72829,-0.44928 c 0,-0.0772 0.0127,-0.10881 0.0283,-0.0702 0.0156,0.0386 0.0156,0.10179 0,0.1404 -0.0156,0.0386 -0.0283,0.007 -0.0283,-0.0702 z m -5.67213,-0.0562 c 0,-0.0772 0.0127,-0.10881 0.0283,-0.0702 0.0156,0.0386 0.0156,0.10179 0,0.1404 -0.0156,0.0386 -0.0283,0.007 -0.0283,-0.0702 z m 5.61597,-0.44927 c 0,-0.0772 0.0128,-0.10881 0.0283,-0.0702 0.0156,0.0386 0.0156,0.10178 0,0.14039 -0.0156,0.0386 -0.0283,0.007 -0.0283,-0.0702 z m -5.56425,-0.0328 c 0.003,-0.0654 0.016,-0.0787 0.0339,-0.0339 0.0162,0.0405 0.0142,0.089 -0.004,0.10763 -0.0187,0.0187 -0.0319,-0.0145 -0.0295,-0.0737 z m 0.0606,-0.47268 c 0,-0.0772 0.0127,-0.10881 0.0283,-0.0702 0.0156,0.0386 0.0156,0.10179 0,0.1404 -0.0156,0.0386 -0.0283,0.007 -0.0283,-0.0702 z m 5.44749,0 c 0,-0.0772 0.0127,-0.10881 0.0283,-0.0702 0.0156,0.0386 0.0156,0.10179 0,0.1404 -0.0156,0.0386 -0.0283,0.007 -0.0283,-0.0702 z m -5.39133,-0.50544 c 0,-0.0772 0.0127,-0.10881 0.0283,-0.0702 0.0156,0.0386 0.0156,0.10179 0,0.1404 -0.0156,0.0386 -0.0283,0.007 -0.0283,-0.0702 z m 5.33074,0.0234 c 0.003,-0.0654 0.016,-0.0787 0.0339,-0.0339 0.0162,0.0405 0.0142,0.089 -0.004,0.10764 -0.0187,0.0187 -0.0319,-0.0145 -0.0295,-0.0737 z m -2.98806,-0.40248 c -0.0699,-0.0891 -0.0679,-0.0911 0.0212,-0.0212 0.0541,0.0424 0.0983,0.0866 0.0983,0.0983 0,0.0462 -0.0461,0.0165 -0.11948,-0.0771 z m 2.93634,-0.0702 c 0,-0.0772 0.0127,-0.10881 0.0283,-0.0702 0.0156,0.0386 0.0156,0.10179 0,0.1404 -0.0156,0.0386 -0.0283,0.007 -0.0283,-0.0702 z m -5.22286,-0.0562 c 0,-0.0772 0.0128,-0.10881 0.0283,-0.0702 0.0156,0.0386 0.0156,0.10179 0,0.1404 -0.0156,0.0386 -0.0283,0.007 -0.0283,-0.0702 z m 2.1858,-0.14508 c 0.003,-0.0654 0.016,-0.0787 0.0339,-0.0339 0.0162,0.0405 0.0142,0.089 -0.004,0.10764 -0.0187,0.0187 -0.0319,-0.0145 -0.0295,-0.0737 z m 2.9809,-0.3042 c 0,-0.0772 0.0127,-0.1088 0.0283,-0.0702 0.0156,0.0386 0.0156,0.10179 0,0.1404 -0.0156,0.0386 -0.0283,0.007 -0.0283,-0.0702 z m -5.11054,-0.0562 c 0,-0.0772 0.0127,-0.10881 0.0283,-0.0702 0.0156,0.0386 0.0156,0.10179 0,0.1404 -0.0156,0.0386 -0.0283,0.007 -0.0283,-0.0702 z m 5.05438,-0.44927 c 0,-0.0772 0.0128,-0.10881 0.0283,-0.0702 0.0156,0.0386 0.0156,0.10179 0,0.1404 -0.0156,0.0386 -0.0283,0.007 -0.0283,-0.0702 z m -4.99822,-0.0562 c 0,-0.0772 0.0127,-0.10881 0.0283,-0.0702 0.0156,0.0386 0.0156,0.10179 0,0.1404 -0.0156,0.0386 -0.0283,0.007 -0.0283,-0.0702 z m 4.94206,-0.44928 c 0,-0.0772 0.0127,-0.10881 0.0283,-0.0702 0.0156,0.0386 0.0156,0.10179 0,0.1404 -0.0156,0.0386 -0.0283,0.007 -0.0283,-0.0702 z m -4.89033,-0.0328 c 0.003,-0.0654 0.016,-0.0787 0.0339,-0.0339 0.0162,0.0405 0.0142,0.089 -0.004,0.10764 -0.0187,0.0187 -0.0319,-0.0145 -0.0295,-0.0737 z m 0.0606,-0.47268 c 0,-0.0772 0.0127,-0.10881 0.0283,-0.0702 0.0156,0.0386 0.0156,0.10179 0,0.1404 -0.0156,0.0386 -0.0283,0.007 -0.0283,-0.0702 z m 4.76914,0.0234 c 0.003,-0.0654 0.016,-0.0787 0.0339,-0.0339 0.0162,0.0405 0.0142,0.089 -0.004,0.10764 -0.0187,0.0187 -0.0319,-0.0145 -0.0295,-0.0737 z m -2.80798,-0.16848 c 0.003,-0.0654 0.016,-0.0787 0.0339,-0.0339 0.0162,0.0405 0.0142,0.089 -0.004,0.10764 -0.0187,0.0187 -0.0319,-0.0145 -0.0295,-0.0737 z m -11.737379,-0.11231 c 0.0027,-0.0654 0.016,-0.0787 0.03393,-0.0339 0.01622,0.0405 0.01423,0.089 -0.0044,0.10763 -0.01866,0.0187 -0.03194,-0.0145 -0.0295,-0.0737 z m 33.471189,0 c 0.003,-0.0654 0.016,-0.0787 0.0339,-0.0339 0.0162,0.0405 0.0142,0.089 -0.004,0.10763 -0.0187,0.0187 -0.0319,-0.0145 -0.0295,-0.0737 z m -33.419463,-0.18857 c 0,-0.0291 0.02498,-0.0683 0.05552,-0.0872 0.03184,-0.0197 0.04125,0.003 0.02207,0.0528 -0.03733,0.0973 -0.07759,0.11509 -0.07759,0.0343 z m 9.780653,-0.0595 c 0,-0.0772 0.0128,-0.10881 0.0283,-0.0702 0.0156,0.0386 0.0156,0.10179 0,0.1404 -0.0156,0.0386 -0.0283,0.007 -0.0283,-0.0702 z m 4.65683,0.0234 c 0.003,-0.0654 0.016,-0.0787 0.0339,-0.0339 0.0162,0.0405 0.0142,0.089 -0.004,0.10764 -0.0187,0.0187 -0.0319,-0.0145 -0.0295,-0.0737 z m 18.89692,-0.007 c -0.0305,-0.08 -0.024,-0.0865 0.0314,-0.0314 0.0384,0.0381 0.0556,0.0834 0.0383,0.1007 -0.0173,0.0173 -0.0487,-0.0139 -0.0698,-0.0693 z m -18.94865,-0.46574 c 0,-0.0772 0.0127,-0.10881 0.0283,-0.0702 0.0156,0.0386 0.0156,0.10179 0,0.1404 -0.0156,0.0386 -0.0283,0.007 -0.0283,-0.0702 z m -4.54894,-0.0562 c 0,-0.0772 0.0127,-0.10881 0.0283,-0.0702 0.0156,0.0386 0.0156,0.10179 0,0.1404 -0.0156,0.0386 -0.0283,0.007 -0.0283,-0.0702 z m -7.548305,-0.0982 c 0.779915,-0.009 2.056145,-0.009 2.836065,0 0.77992,0.009 0.1418,0.016 -1.41803,0.016 -1.559838,0 -2.197953,-0.007 -1.418035,-0.016 z m 26.001945,0 c 0.77992,-0.009 2.05615,-0.009 2.83607,0 0.77991,0.009 0.1418,0.016 -1.41804,0.016 -1.55983,0 -2.19795,-0.007 -1.41803,-0.016 z m -13.96086,-0.35108 c 0,-0.0772 0.0127,-0.10881 0.0283,-0.0702 0.0156,0.0386 0.0156,0.10179 0,0.1404 -0.0156,0.0386 -0.0283,0.007 -0.0283,-0.0702 z m -4.43662,-0.0562 c 0,-0.0772 0.0127,-0.10881 0.0283,-0.0702 0.0156,0.0386 0.0156,0.10179 0,0.1404 -0.0156,0.0386 -0.0283,0.007 -0.0283,-0.0702 z m 4.38046,-0.44928 c 0,-0.0772 0.0127,-0.10881 0.0283,-0.0702 0.0156,0.0386 0.0156,0.10179 0,0.1404 -0.0156,0.0386 -0.0283,0.007 -0.0283,-0.0702 z m -4.3243,-0.0562 c 0,-0.0772 0.0127,-0.10881 0.0283,-0.0702 0.0156,0.0386 0.0156,0.10179 0,0.1404 -0.0156,0.0386 -0.0283,0.007 -0.0283,-0.0702 z m 1.73652,-0.0889 c 0.003,-0.0654 0.016,-0.0787 0.0339,-0.0339 0.0162,0.0405 0.0142,0.089 -0.004,0.10764 -0.0187,0.0187 -0.0319,-0.0145 -0.0295,-0.0737 z m 2.53162,-0.36035 c 0,-0.0772 0.0127,-0.10881 0.0283,-0.0702 0.0156,0.0386 0.0156,0.10179 0,0.1404 -0.0156,0.0386 -0.0283,0.007 -0.0283,-0.0702 z m -4.21641,-0.0328 c 0.003,-0.0654 0.016,-0.0787 0.0339,-0.0339 0.0162,0.0405 0.0142,0.089 -0.004,0.10764 -0.0187,0.0187 -0.0319,-0.0145 -0.0295,-0.0737 z m 4.15582,-0.44928 c 0.003,-0.0654 0.016,-0.0787 0.0339,-0.0339 0.0162,0.0405 0.0142,0.089 -0.004,0.10764 -0.0187,0.0187 -0.0319,-0.0145 -0.0295,-0.0737 z m -4.09966,-0.0562 c 0.003,-0.0654 0.016,-0.0787 0.0339,-0.0339 0.0162,0.0405 0.0142,0.089 -0.004,0.10764 -0.0187,0.0187 -0.0319,-0.0145 -0.0295,-0.0737 z m 0.0606,-0.47268 c 0,-0.0772 0.0127,-0.10881 0.0283,-0.0702 0.0156,0.0386 0.0156,0.10179 0,0.1404 -0.0156,0.0386 -0.0283,0.007 -0.0283,-0.0702 z m 3.98291,0.0234 c 0.003,-0.0654 0.016,-0.0787 0.0339,-0.0339 0.0162,0.0405 0.0142,0.089 -0.004,0.10764 -0.0187,0.0187 -0.0319,-0.0145 -0.0295,-0.0737 z m -0.0517,-0.47268 c 0,-0.0772 0.0127,-0.10881 0.0283,-0.0702 0.0156,0.0386 0.0156,0.10179 0,0.1404 -0.0156,0.0386 -0.0283,0.007 -0.0283,-0.0702 z m -3.87502,-0.0562 c 0,-0.0772 0.0127,-0.10881 0.0283,-0.0702 0.0156,0.0386 0.0156,0.10179 0,0.1404 -0.0156,0.0386 -0.0283,0.007 -0.0283,-0.0702 z m 1.51187,-0.0889 c 0.003,-0.0654 0.016,-0.0787 0.0339,-0.0339 0.0162,0.0405 0.0142,0.089 -0.004,0.10764 -0.0187,0.0187 -0.0319,-0.0145 -0.0295,-0.0737 z m -2.58334,-0.11232 c 0.003,-0.0654 0.016,-0.0787 0.0339,-0.0339 0.0162,0.0405 0.0142,0.089 -0.004,0.10764 -0.0187,0.0187 -0.0319,-0.0145 -0.0295,-0.0737 z m 4.89033,-0.24804 c 0,-0.0772 0.0127,-0.1088 0.0283,-0.0702 0.0156,0.0386 0.0156,0.10179 0,0.1404 -0.0156,0.0386 -0.0283,0.007 -0.0283,-0.0702 z m -3.7627,-0.0562 c 0,-0.0772 0.0127,-0.1088 0.0283,-0.0702 0.0156,0.0386 0.0156,0.10179 0,0.1404 -0.0156,0.0386 -0.0283,0.007 -0.0283,-0.0702 z m 3.70654,-0.44927 c 0,-0.0772 0.0127,-0.10881 0.0283,-0.0702 0.0156,0.0386 0.0156,0.10179 0,0.1404 -0.0156,0.0386 -0.0283,0.007 -0.0283,-0.0702 z m -3.65038,-0.0562 c 0,-0.0772 0.0127,-0.10881 0.0283,-0.0702 0.0156,0.0386 0.0156,0.10179 0,0.1404 -0.0156,0.0386 -0.0283,0.007 -0.0283,-0.0702 z m 3.59422,-0.44928 c 0,-0.0772 0.0128,-0.10881 0.0283,-0.0702 0.0156,0.0386 0.0156,0.10179 0,0.1404 -0.0156,0.0386 -0.0283,0.007 -0.0283,-0.0702 z m -3.5425,-0.0328 c 0.003,-0.0654 0.016,-0.0787 0.0339,-0.0339 0.0162,0.0405 0.0142,0.089 -0.004,0.10764 -0.0187,0.0187 -0.0319,-0.0145 -0.0295,-0.0737 z m 4.6051,-0.16848 c 0.003,-0.0654 0.016,-0.0787 0.0339,-0.0339 0.0162,0.0405 0.0142,0.089 -0.004,0.10764 -0.0187,0.0187 -0.0319,-0.0145 -0.0295,-0.0737 z m -1.12319,-0.2808 c 0.003,-0.0654 0.016,-0.0787 0.0339,-0.0339 0.0162,0.0405 0.0142,0.089 -0.004,0.10764 -0.0187,0.0187 -0.0319,-0.0145 -0.0295,-0.0737 z m -3.42574,-0.0562 c 0.003,-0.0654 0.016,-0.0787 0.0339,-0.0339 0.0162,0.0405 0.0142,0.089 -0.004,0.10764 -0.0187,0.0187 -0.0319,-0.0145 -0.0295,-0.0737 z m 1.29167,-0.0562 c 0.003,-0.0654 0.016,-0.0787 0.0339,-0.0339 0.0162,0.0405 0.0142,0.089 -0.004,0.10764 -0.0187,0.0187 -0.0319,-0.0145 -0.0295,-0.0737 z m 2.07791,-0.33695 c 0.003,-0.0654 0.016,-0.0787 0.0339,-0.0339 0.0162,0.0405 0.0142,0.089 -0.004,0.10764 -0.0187,0.0187 -0.0319,-0.0145 -0.0295,-0.0737 z m -0.48532,-0.87984 -0.16495,-0.18252 0.18252,0.16495 c 0.17013,0.15375 0.20833,0.20009 0.16494,0.20009 -0.01,0 -0.0918,-0.0821 -0.18251,-0.18252 z m -2.3271,-0.007 c 0,-0.0117 0.0442,-0.0559 0.0983,-0.0983 0.0891,-0.0699 0.0911,-0.0679 0.0212,0.0212 -0.0734,0.0935 -0.11948,0.1233 -0.11948,0.0771 z m 0.94068,-0.46527 c 0.0386,-0.0156 0.10179,-0.0156 0.1404,0 0.0386,0.0156 0.007,0.0283 -0.0702,0.0283 -0.0772,0 -0.10881,-0.0127 -0.0702,-0.0283 z m 0.33695,0 c 0.0386,-0.0156 0.10179,-0.0156 0.1404,0 0.0386,0.0156 0.007,0.0283 -0.0702,0.0283 -0.0772,0 -0.10881,-0.0127 -0.0702,-0.0283 z m -0.50192,-1.0682 c 0.0405,-0.0162 0.089,-0.0142 0.10764,0.004 0.0187,0.0187 -0.0145,0.0319 -0.0737,0.0295 -0.0654,-0.003 -0.0787,-0.016 -0.0339,-0.0339 z m 0.73007,0 c 0.0405,-0.0162 0.089,-0.0142 0.10764,0.004 0.0187,0.0187 -0.0145,0.0319 -0.0737,0.0295 -0.0654,-0.003 -0.0787,-0.016 -0.0339,-0.0339 z"
       id="path503"
       inkscape:connector-curvature="0" />
    <path
       style="opacity:1;fill:#989898;stroke-width:0.0561597;stop-opacity:1"
       d="m 108.707,137.10413 c -0.91863,-0.11032 -1.70424,-0.49783 -2.39245,-1.18012 -0.53613,-0.53152 -0.82933,-0.99927 -1.03774,-1.65557 -0.24195,-0.76189 -0.23527,-0.94332 0.16446,-4.46734 0.20146,-1.77605 0.3808,-3.38082 0.39854,-3.56614 0.18972,-1.9823 0.61963,-5.51741 0.7077,-5.81927 0.37052,-1.27008 1.70417,-2.11085 3.03498,-1.91333 1.07334,0.15931 1.99828,0.97795 2.26456,2.00431 0.0481,0.18532 0.21358,1.48682 0.36777,2.89222 0.15419,1.4054 0.46165,4.17267 0.68323,6.14949 0.37211,3.31965 0.39812,3.62741 0.3405,4.02862 -0.0765,0.5325 -0.27835,1.12714 -0.5262,1.54998 -0.3035,0.5178 -1.06211,1.23491 -1.60246,1.51484 -0.73929,0.38297 -1.6325,0.55482 -2.40289,0.46231 z m 1.23229,-1.12464 c 0.5663,-0.14484 0.98998,-0.3894 1.40721,-0.81231 0.5332,-0.54045 0.86941,-1.30323 0.8712,-1.97653 4e-4,-0.14998 -0.30543,-2.98941 -0.67962,-6.30986 -0.73992,-6.56585 -0.70337,-6.34234 -1.11369,-6.80967 -0.45719,-0.52071 -1.33202,-0.68084 -1.98031,-0.36248 -0.17549,0.0862 -0.40038,0.2493 -0.49976,0.36248 -0.41388,0.47139 -0.37583,0.23985 -1.11471,6.78159 -0.3733,3.305 -0.67853,6.1491 -0.6783,6.32021 0.001,0.89213 0.54296,1.86621 1.3276,2.38702 0.75805,0.50316 1.58326,0.64388 2.46038,0.41955 z m -1.23881,-1.96153 c -0.27687,-0.12573 -0.49346,-0.39509 -0.58037,-0.72175 -0.081,-0.30431 -0.0321,-0.56277 0.16527,-0.87397 0.56518,-0.8912 1.98205,-0.46055 1.98205,0.60243 0,0.30263 -0.14331,0.65845 -0.33504,0.83183 -0.29971,0.27103 -0.83588,0.3413 -1.23191,0.16146 z m 0.23873,-4.61406 c -0.29521,-0.23221 -0.13274,-0.68856 0.24514,-0.68856 0.37789,0 0.54036,0.45635 0.24515,0.68856 -0.0814,0.064 -0.1917,0.1164 -0.24515,0.1164 -0.0534,0 -0.16376,-0.0524 -0.24514,-0.1164 z m 0,-1.96559 c -0.29521,-0.23221 -0.13274,-0.68856 0.24514,-0.68856 0.37789,0 0.54036,0.45635 0.24515,0.68856 -0.0814,0.064 -0.1917,0.1164 -0.24515,0.1164 -0.0534,0 -0.16376,-0.0524 -0.24514,-0.1164 z m 0,-1.96559 c -0.20655,-0.16246 -0.20466,-0.44861 0.004,-0.61277 0.26387,-0.20757 0.63422,-0.025 0.63422,0.3126 0,0.19713 -0.20708,0.41657 -0.39311,0.41657 -0.0534,0 -0.16376,-0.0524 -0.24515,-0.1164 z m 0.004,-1.96241 c -0.2087,-0.16416 -0.21058,-0.45031 -0.004,-0.61278 0.0814,-0.064 0.1917,-0.1164 0.24514,-0.1164 0.18603,0 0.39312,0.21945 0.39312,0.41657 0,0.33763 -0.37035,0.52017 -0.63422,0.31261 z m 0.12883,-1.89277 c -0.31134,-0.1124 -0.3841,-0.48795 -0.13283,-0.6856 0.0814,-0.064 0.1917,-0.1164 0.24514,-0.1164 0.18603,0 0.39312,0.21945 0.39312,0.41657 0,0.25947 -0.27451,0.4688 -0.50543,0.38543 z"
       id="path501"
       inkscape:connector-curvature="0" />
    <path
       style="opacity:1;fill:#6287a7;stroke-width:0.0561597;stop-opacity:1"
       d="m 103.49818,139.87265 c 0.0386,-0.0156 0.10179,-0.0156 0.1404,0 0.0386,0.0156 0.007,0.0283 -0.0702,0.0283 -0.0772,0 -0.10881,-0.0128 -0.0702,-0.0283 z m 20.38598,0 c 0.0386,-0.0156 0.10179,-0.0156 0.1404,0 0.0386,0.0156 0.007,0.0283 -0.0702,0.0283 -0.0772,0 -0.10881,-0.0128 -0.0702,-0.0283 z m -15.13504,-2.75334 c 0.054,-0.0141 0.1425,-0.0141 0.19656,0 0.0541,0.0141 0.01,0.0257 -0.0983,0.0257 -0.10811,0 -0.15234,-0.0116 -0.0983,-0.0257 z m 0.67391,0 c 0.0541,-0.0141 0.14251,-0.0141 0.19656,0 0.0541,0.0141 0.01,0.0257 -0.0983,0.0257 -0.10811,0 -0.15233,-0.0116 -0.0983,-0.0257 z m 0.48087,-0.0558 c 0.0405,-0.0162 0.089,-0.0142 0.10764,0.004 0.0187,0.0187 -0.0145,0.0319 -0.0737,0.0295 -0.0654,-0.003 -0.0787,-0.016 -0.0339,-0.0339 z m -2.71282,-0.41027 c -0.0197,-0.0318 0.003,-0.0413 0.0528,-0.0221 0.0973,0.0373 0.1151,0.0776 0.0343,0.0776 -0.0291,0 -0.0683,-0.025 -0.0872,-0.0555 z m -0.48492,-0.32357 c -0.0699,-0.0891 -0.0679,-0.0911 0.0212,-0.0212 0.0935,0.0734 0.1233,0.11949 0.0771,0.11949 -0.0117,0 -0.0559,-0.0442 -0.0983,-0.0983 z m -0.44403,-0.39311 -0.30696,-0.32292 0.32292,0.30696 c 0.3,0.28517 0.34864,0.33888 0.30696,0.33888 -0.009,0 -0.15409,-0.14532 -0.32292,-0.32292 z m 5.81445,-0.014 c 0.15212,-0.15444 0.28921,-0.2808 0.30466,-0.2808 0.0154,0 -0.0964,0.12636 -0.2485,0.2808 -0.15212,0.15444 -0.28921,0.2808 -0.30466,0.2808 -0.0154,0 0.0964,-0.12636 0.2485,-0.2808 z m -6.98302,-2.30255 c 0,-0.0772 0.0127,-0.10881 0.0283,-0.0702 0.0156,0.0386 0.0156,0.10179 0,0.1404 -0.0156,0.0386 -0.0283,0.007 -0.0283,-0.0702 z m 8.13873,-0.0328 c 0.003,-0.0654 0.016,-0.0787 0.0339,-0.0339 0.0162,0.0405 0.0142,0.089 -0.004,0.10764 -0.0187,0.0187 -0.0319,-0.0145 -0.0295,-0.0737 z m 0.006,-0.95004 c 10e-4,-0.0927 0.0137,-0.12377 0.028,-0.0691 0.0142,0.0546 0.0133,0.13046 -0.002,0.16848 -0.0154,0.038 -0.027,-0.007 -0.0259,-0.0994 z m -8.14524,-0.0281 c 0,-0.0772 0.0128,-0.10881 0.0283,-0.0702 0.0156,0.0386 0.0156,0.10179 0,0.1404 -0.0156,0.0386 -0.0283,0.007 -0.0283,-0.0702 z m 8.087,-0.44928 c 0,-0.0772 0.0127,-0.10881 0.0283,-0.0702 0.0156,0.0386 0.0156,0.10179 0,0.1404 -0.0156,0.0386 -0.0283,0.007 -0.0283,-0.0702 z m -8.03084,-0.0562 c 0,-0.0772 0.0127,-0.1088 0.0283,-0.0702 0.0156,0.0386 0.0156,0.10179 0,0.1404 -0.0156,0.0386 -0.0283,0.007 -0.0283,-0.0702 z m 0.0582,-0.47735 c 0.001,-0.0927 0.0137,-0.12378 0.028,-0.0691 0.0142,0.0546 0.0133,0.13045 -0.002,0.16848 -0.0154,0.038 -0.027,-0.007 -0.0259,-0.0993 z m 7.91644,0.0281 c 0,-0.0772 0.0127,-0.10881 0.0283,-0.0702 0.0156,0.0386 0.0156,0.10179 0,0.1404 -0.0156,0.0386 -0.0283,0.007 -0.0283,-0.0702 z m -7.86027,-0.53352 c 10e-4,-0.0927 0.0137,-0.12377 0.028,-0.0691 0.0142,0.0546 0.0133,0.13046 -0.002,0.16848 -0.0154,0.038 -0.027,-0.007 -0.0259,-0.0994 z m 7.80412,0.0281 c 0,-0.0772 0.0127,-0.10881 0.0283,-0.0702 0.0156,0.0386 0.0156,0.10179 0,0.1404 -0.0156,0.0386 -0.0283,0.007 -0.0283,-0.0702 z m -7.75004,-0.50544 c 0,-0.0772 0.0127,-0.10881 0.0283,-0.0702 0.0156,0.0386 0.0156,0.10179 0,0.1404 -0.0156,0.0386 -0.0283,0.007 -0.0283,-0.0702 z m 7.69388,0 c 0,-0.0772 0.0127,-0.10881 0.0283,-0.0702 0.0156,0.0386 0.0156,0.10179 0,0.1404 -0.0156,0.0386 -0.0283,0.007 -0.0283,-0.0702 z m -0.0541,-0.47735 c 10e-4,-0.0927 0.0137,-0.12378 0.028,-0.0691 0.0142,0.0546 0.0133,0.13045 -0.002,0.16848 -0.0154,0.038 -0.027,-0.007 -0.0259,-0.0993 z m -7.58364,-0.0281 c 0,-0.0772 0.0128,-0.10881 0.0283,-0.0702 0.0156,0.0386 0.0156,0.10179 0,0.1404 -0.0156,0.0386 -0.0283,0.007 -0.0283,-0.0702 z m 7.52748,-0.47736 c 0.001,-0.0927 0.0137,-0.12377 0.028,-0.0691 0.0142,0.0546 0.0133,0.13046 -0.002,0.16848 -0.0154,0.038 -0.027,-0.007 -0.0259,-0.0994 z m -7.47132,-0.0281 c 0,-0.0772 0.0127,-0.10881 0.0283,-0.0702 0.0156,0.0386 0.0156,0.10179 0,0.1404 -0.0156,0.0386 -0.0283,0.007 -0.0283,-0.0702 z m 7.41308,-0.44928 c 0,-0.0772 0.0128,-0.10881 0.0283,-0.0702 0.0156,0.0386 0.0156,0.10179 0,0.1404 -0.0156,0.0386 -0.0283,0.007 -0.0283,-0.0702 z m -7.35692,-0.0562 c 0,-0.0772 0.0127,-0.10881 0.0283,-0.0702 0.0156,0.0386 0.0156,0.10179 0,0.1404 -0.0156,0.0386 -0.0283,0.007 -0.0283,-0.0702 z m 0.0582,-0.47736 c 0.001,-0.0927 0.0137,-0.12377 0.028,-0.0691 0.0142,0.0546 0.0133,0.13046 -0.002,0.16848 -0.0154,0.038 -0.027,-0.007 -0.0259,-0.0993 z m 7.24252,0.0281 c 0,-0.0772 0.0127,-0.10881 0.0283,-0.0702 0.0156,0.0386 0.0156,0.10179 0,0.1404 -0.0156,0.0386 -0.0283,0.007 -0.0283,-0.0702 z m -7.18844,-0.50543 c 0,-0.0772 0.0127,-0.10881 0.0283,-0.0702 0.0156,0.0386 0.0156,0.10179 0,0.1404 -0.0156,0.0386 -0.0283,0.007 -0.0283,-0.0702 z m 7.13228,0 c 0,-0.0772 0.0127,-0.10881 0.0283,-0.0702 0.0156,0.0386 0.0156,0.10179 0,0.1404 -0.0156,0.0386 -0.0283,0.007 -0.0283,-0.0702 z m -7.07612,-0.50544 c 0,-0.0772 0.0128,-0.10881 0.0283,-0.0702 0.0156,0.0386 0.0156,0.10179 0,0.1404 -0.0156,0.0386 -0.0283,0.007 -0.0283,-0.0702 z m 7.01996,0 c 0,-0.0772 0.0127,-0.10881 0.0283,-0.0702 0.0156,0.0386 0.0156,0.10179 0,0.1404 -0.0156,0.0386 -0.0283,0.007 -0.0283,-0.0702 z m -0.0562,-0.44928 c 0,-0.0772 0.0127,-0.10881 0.0283,-0.0702 0.0156,0.0386 0.0156,0.10179 0,0.1404 -0.0156,0.0386 -0.0283,0.007 -0.0283,-0.0702 z m -6.90764,-0.0562 c 0,-0.0772 0.0127,-0.10881 0.0283,-0.0702 0.0156,0.0386 0.0156,0.10179 0,0.1404 -0.0156,0.0386 -0.0283,0.007 -0.0283,-0.0702 z m 6.85148,-0.44928 c 0,-0.0772 0.0128,-0.10881 0.0283,-0.0702 0.0156,0.0386 0.0156,0.10179 0,0.1404 -0.0156,0.0386 -0.0283,0.007 -0.0283,-0.0702 z m -6.79532,-0.0562 c 0,-0.0772 0.0127,-0.10881 0.0283,-0.0702 0.0156,0.0386 0.0156,0.10179 0,0.1404 -0.0156,0.0386 -0.0283,0.007 -0.0283,-0.0702 z m 6.73116,-0.40715 c -8.2e-4,-0.093 0.30316,-0.0975 5.71339,-0.0845 l 5.71425,0.0138 -5.66898,0.0146 c -4.44941,0.0114 -5.67854,0.0296 -5.7134,0.0845 -0.0315,0.0497 -0.0447,0.0415 -0.0453,-0.0284 z m -7.77898,-0.0421 -1.1232,-0.0317 1.13724,-0.0122 c 0.72887,-0.008 1.13723,0.008 1.13723,0.0439 0,0.0309 -0.006,0.0507 -0.014,0.0439 -0.008,-0.007 -0.51948,-0.0265 -1.13723,-0.0439 z"
       id="path499"
       inkscape:connector-curvature="0" />
    <path
       style="opacity:1;fill:#016fd7;stroke-width:0.0561597;stop-opacity:1"
       d="m 108.17348,138.45422 c -0.61608,-0.13754 -0.87488,-0.23366 -1.44343,-0.53612 -1.38006,-0.73415 -2.35761,-1.96967 -2.77863,-3.51191 -0.11166,-0.409 -0.13,-0.60602 -0.12808,-1.37591 0.003,-1.09044 0.13082,-1.6507 0.58155,-2.5436 0.17456,-0.34579 0.75029,-1.14784 0.95191,-1.32608 0.12003,-0.10612 0.121,-0.10589 0.11982,0.0281 -6.6e-4,0.0743 -0.0957,0.96903 -0.21124,1.98833 -0.23999,2.1175 -0.23679,2.45966 0.03,3.2104 0.8321,2.34147 3.42553,3.41955 5.658,2.35202 1.13296,-0.54176 1.91622,-1.49253 2.21871,-2.69322 0.15671,-0.62201 0.14293,-1.02258 -0.11213,-3.25836 -0.12309,-1.07889 -0.21413,-1.97129 -0.20233,-1.98309 0.0913,-0.0913 0.97355,0.948 1.29935,1.5306 l 0.20373,0.36429 0.5708,0.002 c 1.18738,0.004 1.78414,0.18659 2.3069,0.70652 0.89506,0.89022 0.89765,2.35987 0.006,3.25178 -0.51939,0.51939 -1.08236,0.69855 -2.2,0.70015 l -0.6828,9.7e-4 -0.2062,0.37514 c -0.70562,1.28371 -1.98698,2.27713 -3.43855,2.66586 -0.63962,0.17128 -1.89458,0.1971 -2.54313,0.0523 z"
       id="path497"
       inkscape:connector-curvature="0" />
    <path
       style="opacity:1;fill:#01498b;stroke-width:0.0561597;stop-opacity:1"
       d="m 103.44041,139.83009 c -0.31893,-0.0858 -0.52301,-0.25965 -0.66444,-0.56608 -0.0988,-0.214 -0.10362,-0.50792 -0.10244,-6.20565 0.001,-6.33779 -0.003,-6.23315 0.25772,-6.52617 0.25056,-0.2818 0.46864,-0.32276 1.72544,-0.32408 l 1.17255,-0.001 -0.0332,0.26676 c -0.0182,0.14672 -0.0889,0.7722 -0.15696,1.38995 l -0.12378,1.1232 -0.23141,0.25272 c -0.49193,0.53721 -0.91469,1.22263 -1.151,1.86611 -0.26076,0.71004 -0.30725,0.99911 -0.30956,1.92467 -0.003,1.07305 0.0967,1.52699 0.52856,2.41486 0.58091,1.19424 1.42454,2.02463 2.65401,2.61237 0.80659,0.38558 1.22071,0.46941 2.31884,0.46941 0.805,0 1.02326,-0.019 1.39185,-0.12104 1.47051,-0.40719 2.73414,-1.38833 3.43855,-2.66984 l 0.2062,-0.37513 0.68281,-9.8e-4 c 1.11764,-0.002 1.68061,-0.18076 2.19999,-0.70014 0.89191,-0.89192 0.88932,-2.36157 -0.006,-3.25179 -0.52279,-0.51996 -1.11955,-0.70273 -2.30693,-0.70655 l -0.57081,-0.002 -0.20372,-0.36429 c -0.25139,-0.44958 -0.77674,-1.11709 -1.0905,-1.38566 l -0.23504,-0.20119 -0.13801,-1.17256 c -0.0759,-0.6449 -0.13834,-1.21678 -0.13875,-1.27083 -7.1e-4,-0.093 0.30938,-0.0982 5.74158,-0.097 5.51974,10e-4 5.75144,0.005 5.97729,0.10791 0.14783,0.0671 0.29362,0.1953 0.39312,0.34564 l 0.15815,0.23897 0.0156,6.04129 c 0.0173,6.70455 0.0367,6.33783 -0.3518,6.6789 -0.11344,0.0996 -0.30315,0.19009 -0.47648,0.22726 -0.44882,0.0962 -20.21124,0.079 -20.57177,-0.018 z"
       id="path495"
       inkscape:connector-curvature="0" />
  </g>
</svg>
