<?xml version="1.0" encoding="utf-8"?>
<!-- Generator: Adobe Illustrator 24.2.1, SVG Export Plug-In . SVG Version: 6.00 Build 0)  -->
<svg version="1.1" id="Layer_1" xmlns="http://www.w3.org/2000/svg" xmlns:xlink="http://www.w3.org/1999/xlink" x="0px" y="0px"
	 viewBox="0 0 83.6 86.2" style="enable-background:new 0 0 83.6 86.2;" xml:space="preserve">
<style type="text/css">
	.st0{fill:none;stroke:#1DD4FF;stroke-width:3.9897;}
	.st1{fill:none;stroke:#A430FF;stroke-width:3.9897;}
	.st2{fill:none;stroke:#3131FF;stroke-width:3.9897;}
	.st3{fill:none;stroke:#00CC44;stroke-width:3.9897;}
	.st4{fill:none;stroke:#FFED12;stroke-width:3.9897;}
	.st5{fill:none;stroke:#FF9F2C;stroke-width:3.9897;}
	.st6{fill:none;stroke:#FF2929;stroke-width:4.6547;}
</style>
<g id="ID0.4416364748030901">
	<path id="ID0.9403524622321129" class="st0" d="M18.9,62.6c0-12.9,10.4-23.3,23.3-23.3"/>
	<path id="ID0.9403524622321129_1_" class="st0" d="M64.8,62.6c0-12.9-10.4-23.3-23.3-23.3"/>
	<g id="ID0.18294116482138634">
		<path id="ID0.2513149478472769" class="st1" d="M26.3,62.7c0-8.8,7.1-15.9,15.9-15.9"/>
		<path id="ID0.2513149478472769_1_" class="st1" d="M57.3,62.7c0-8.8-7.1-15.9-15.9-15.9"/>
	</g>
	<g id="ID0.48375840252265334">
		<path id="ID0.3910572864115238" class="st2" d="M22.4,62.7c0-10.9,8.9-19.8,19.8-19.8"/>
		<path id="ID0.3910572864115238_1_" class="st2" d="M61.2,62.7c0-10.9-8.9-19.8-19.8-19.8"/>
	</g>
	<g id="ID0.6362090813927352">
		<path id="ID0.20220525283366442" class="st3" d="M14.9,62.6c0-15.1,12.2-27.3,27.3-27.3"/>
		<path id="ID0.20220525283366442_1_" class="st3" d="M68.7,62.6c0-15.1-12.2-27.3-27.3-27.3"/>
	</g>
	<g id="ID0.2237109406851232">
		<path id="ID0.1437523658387363" class="st4" d="M11.2,62.6c0-17.1,13.9-31,31-31"/>
		<path id="ID0.1437523658387363_1_" class="st4" d="M72.4,62.6c0-17.1-13.9-31-31-31"/>
	</g>
	<g id="ID0.628254437353462">
		<path id="ID0.09627014677971601" class="st5" d="M7.3,62.6c0-19.3,15.6-34.9,34.9-34.9"/>
		<path id="ID0.09627014677971601_1_" class="st5" d="M76.3,62.6c0-19.3-15.6-34.9-34.9-34.9"/>
	</g>
	<g id="ID0.7588445385918021">
		<path id="ID0.5399231510236859" class="st6" d="M3.1,62.6c0-21.6,17.5-39,39-39"/>
		<path id="ID0.5399231510236859_1_" class="st6" d="M80.5,62.6c0-21.6-17.5-39-39-39"/>
	</g>
</g>
</svg>
