<svg id="Layer_1" data-name="Layer 1" xmlns="http://www.w3.org/2000/svg" width="36.47" height="18.33" viewBox="0 0 36.47 18.33">
  <defs>
    <style>
      .cls-1, .cls-2, .cls-3, .cls-4, .cls-5, .cls-6, .cls-7 {
        fill: none;
      }

      .cls-1 {
        stroke: #1dd4ff;
      }

      .cls-1, .cls-2, .cls-3, .cls-4, .cls-5, .cls-6 {
        stroke-width: 1.77px;
      }

      .cls-2 {
        stroke: #a430ff;
      }

      .cls-3 {
        stroke: #3131ff;
      }

      .cls-4 {
        stroke: #0c4;
      }

      .cls-5 {
        stroke: #ffed12;
      }

      .cls-6 {
        stroke: #ff9f2c;
      }

      .cls-7 {
        stroke: #ff2929;
        stroke-width: 2.07px;
      }
    </style>
  </defs>
  <g id="ID0.4416364748030901">
    <path id="ID0.9403524622321129" class="cls-1" d="M9.8,28.7A10.39,10.39,0,0,1,20.2,18.3" transform="translate(-1.77 -10.37)"/>
    <path id="ID0.9403524622321129-2" data-name="ID0.9403524622321129" class="cls-1" d="M30.2,28.7A10.39,10.39,0,0,0,19.8,18.3" transform="translate(-1.77 -10.37)"/>
    <g id="ID0.18294116482138634">
      <path id="ID0.2513149478472769" class="cls-2" d="M13.1,28.7a7.13,7.13,0,0,1,7.1-7.1" transform="translate(-1.77 -10.37)"/>
      <path id="ID0.2513149478472769-2" data-name="ID0.2513149478472769" class="cls-2" d="M26.9,28.7a7.13,7.13,0,0,0-7.1-7.1" transform="translate(-1.77 -10.37)"/>
    </g>
    <g id="ID0.48375840252265334">
      <path id="ID0.3910572864115238" class="cls-3" d="M11.4,28.7a8.75,8.75,0,0,1,8.8-8.8" transform="translate(-1.77 -10.37)"/>
      <path id="ID0.3910572864115238-2" data-name="ID0.3910572864115238" class="cls-3" d="M28.6,28.7a8.75,8.75,0,0,0-8.8-8.8" transform="translate(-1.77 -10.37)"/>
    </g>
    <g id="ID0.6362090813927352">
      <path id="ID0.20220525283366442" class="cls-4" d="M8,28.7A12.08,12.08,0,0,1,20.1,16.6" transform="translate(-1.77 -10.37)"/>
      <path id="ID0.20220525283366442-2" data-name="ID0.20220525283366442" class="cls-4" d="M32,28.7A12.08,12.08,0,0,0,19.9,16.6" transform="translate(-1.77 -10.37)"/>
    </g>
    <g id="ID0.2237109406851232">
      <path id="ID0.1437523658387363" class="cls-5" d="M6.4,28.7A13.83,13.83,0,0,1,20.2,14.9" transform="translate(-1.77 -10.37)"/>
      <path id="ID0.1437523658387363-2" data-name="ID0.1437523658387363" class="cls-5" d="M33.6,28.7A13.83,13.83,0,0,0,19.8,14.9" transform="translate(-1.77 -10.37)"/>
    </g>
    <g id="ID0.628254437353462">
      <path id="ID0.09627014677971601" class="cls-6" d="M4.7,28.7A15.45,15.45,0,0,1,20.2,13.2" transform="translate(-1.77 -10.37)"/>
      <path id="ID0.09627014677971601-2" data-name="ID0.09627014677971601" class="cls-6" d="M35.3,28.7A15.45,15.45,0,0,0,19.8,13.2" transform="translate(-1.77 -10.37)"/>
    </g>
    <g id="ID0.7588445385918021">
      <path id="ID0.5399231510236859" class="cls-7" d="M2.8,28.7A17.31,17.31,0,0,1,20.1,11.4" transform="translate(-1.77 -10.37)"/>
      <path id="ID0.5399231510236859-2" data-name="ID0.5399231510236859" class="cls-7" d="M37.2,28.7A17.31,17.31,0,0,0,19.9,11.4" transform="translate(-1.77 -10.37)"/>
    </g>
  </g>
</svg>
