<?xml version="1.0" encoding="UTF-8" standalone="no"?>
<svg
   xmlns:dc="http://purl.org/dc/elements/1.1/"
   xmlns:cc="http://creativecommons.org/ns#"
   xmlns:rdf="http://www.w3.org/1999/02/22-rdf-syntax-ns#"
   xmlns:svg="http://www.w3.org/2000/svg"
   xmlns="http://www.w3.org/2000/svg"
   xmlns:xlink="http://www.w3.org/1999/xlink"
   xmlns:sodipodi="http://sodipodi.sourceforge.net/DTD/sodipodi-0.dtd"
   xmlns:inkscape="http://www.inkscape.org/namespaces/inkscape"
   width="116px"
   height="95px"
   viewBox="0 0 116 95"
   version="1.1"
   id="svg2"
   inkscape:version="0.91 r13725"
   sodipodi:docname="scratchbit-illustration.svg">
  <metadata
     id="metadata539">
    <rdf:RDF>
      <cc:Work
         rdf:about="">
        <dc:format>image/svg+xml</dc:format>
        <dc:type
           rdf:resource="http://purl.org/dc/dcmitype/StillImage" />
        <dc:title>microbit-illustration</dc:title>
      </cc:Work>
    </rdf:RDF>
  </metadata>
  <sodipodi:namedview
     pagecolor="#ffffff"
     bordercolor="#666666"
     borderopacity="1"
     objecttolerance="10"
     gridtolerance="10"
     guidetolerance="10"
     inkscape:pageopacity="0"
     inkscape:pageshadow="2"
     inkscape:window-width="972"
     inkscape:window-height="780"
     id="namedview537"
     showgrid="false"
     inkscape:zoom="2.4842105"
     inkscape:cx="57.597458"
     inkscape:cy="79.70339"
     inkscape:window-x="331"
     inkscape:window-y="31"
     inkscape:window-maximized="0"
     inkscape:current-layer="svg2" />
  <!-- Generator: Sketch 50.2 (55047) - http://www.bohemiancoding.com/sketch -->
  <title
     id="title4">microbit-illustration</title>
  <desc
     id="desc6">Created with Sketch.</desc>
  <defs
     id="defs8">
    <style
       id="style4210">.cls-1{opacity:0.3;}.cls-11,.cls-2{opacity:0.1;}.cls-3{opacity:0.15;}.cls-11,.cls-4{fill:#231f20;}.cls-5{fill:#0fbd8c;stroke:#0b8e69;}.cls-5,.cls-9{stroke-miterlimit:10;}.cls-6{fill:#fff;}.cls-6,.cls-8,.cls-9{stroke:#7c87a5;}.cls-15,.cls-6,.cls-8{stroke-linecap:round;stroke-linejoin:round;}.cls-7{fill:url(#linear-gradient);}.cls-14,.cls-8{fill:#e6e7e8;}.cls-9{fill:#ffab19;}.cls-10{fill:url(#linear-gradient-2);}.cls-12{fill:url(#linear-gradient-3);}.cls-13{fill:url(#linear-gradient-4);}.cls-15{fill:none;stroke:#231f20;stroke-width:2px;}</style>
    <linearGradient
       gradientUnits="userSpaceOnUse"
       y2="11.95"
       x2="84"
       y1="163.95"
       x1="84"
       id="linear-gradient">
      <stop
         id="stop4213"
         stop-color="#231f20"
         offset="0" />
      <stop
         id="stop4215"
         stop-opacity="0.88"
         stop-color="#231f20"
         offset="0.33" />
      <stop
         id="stop4217"
         stop-opacity="0.51"
         stop-color="#231f20"
         offset="0.68" />
      <stop
         id="stop4219"
         stop-opacity="0"
         stop-color="#231f20"
         offset="1" />
    </linearGradient>
    <linearGradient
       xlink:href="#linear-gradient"
       y2="120.95"
       x2="84"
       y1="54.95"
       x1="84"
       id="linear-gradient-2" />
    <linearGradient
       gradientUnits="userSpaceOnUse"
       gradientTransform="matrix(0,-1,1,0,941.16,3093.16)"
       y2="-857.16"
       x2="3021.2"
       y1="-857.16"
       x1="2989.2"
       id="linear-gradient-3">
      <stop
         id="stop4223"
         stop-color="#ffab19"
         offset="0" />
      <stop
         id="stop4225"
         stop-opacity="0"
         stop-color="#ffab19"
         offset="1" />
    </linearGradient>
    <linearGradient
       gradientUnits="userSpaceOnUse"
       y2="115.95"
       x2="84"
       y1="59.95"
       x1="84"
       id="linear-gradient-4">
      <stop
         id="stop4228"
         stop-color="#231f20"
         offset="0" />
      <stop
         id="stop4230"
         stop-opacity="0.88"
         stop-color="#231f20"
         offset="0.21" />
      <stop
         id="stop4232"
         stop-opacity="0.51"
         stop-color="#231f20"
         offset="0.43" />
      <stop
         id="stop4234"
         stop-opacity="0"
         stop-color="#231f20"
         offset="0.63" />
    </linearGradient>
    <linearGradient
       inkscape:collect="always"
       xlink:href="#linear-gradient"
       id="linearGradient4346"
       gradientUnits="userSpaceOnUse"
       x1="84"
       y1="163.95"
       x2="84"
       y2="11.95" />
  </defs>
  <g
     id="Bit"
     transform="matrix(0.56781852,0,0,0.56781852,10.303244,-1.7578742)">
    <g
       id="g4239"
       class="cls-3"
       style="opacity:0.15">
      <path
         id="path4241"
         d="M 84,166"
         inkscape:connector-curvature="0" />
      <path
         id="path4243"
         d="m 86.67,8 0.08,0 c 1.13,0 2.26,0.1 3.38,0.19 A 2.14,2.14 0 0 1 91.55,8.82 2,2 0 0 0 93,9.46 2,2 0 0 0 94.13,9.11 2.17,2.17 0 0 1 95.32,8.77 l 0.32,0 c 1.16,0.17 2.3,0.36 3.44,0.58 a 2.09,2.09 0 0 1 1.3,0.77 2,2 0 0 0 1.62,0.88 2,2 0 0 0 1.44,-0.62 l 0,0 q 2.6,0.64 5.11,1.47 a 5,5 0 0 1 3.45,4.71 l 0,0.72"
         class="cls-4"
         inkscape:connector-curvature="0"
         style="fill:#231f20" />
    </g>
    <path
       id="path4245"
       d="m 112,16.56 0,5.16 A 2.28,2.28 0 0 1 109.72,24 L 58.28,24 A 2.28,2.28 0 0 1 56,21.72 l 0,-5.16 a 5,5 0 0 1 3.44,-4.76 c 1.35,-0.44 2.72,-0.84 4.11,-1.21 a 2.09,2.09 0 0 1 1.5,0.12 A 1.92,1.92 0 0 0 66,11 2,2 0 0 0 67.62,10.18 2,2 0 0 1 68.93,9.41 c 1.28,-0.25 2.58,-0.45 3.44,-0.57 a 2.14,2.14 0 0 1 1.5,0.32 2,2 0 0 0 2.58,-0.29 2.14,2.14 0 0 1 1.42,-0.63 C 79,8.1 80.12,8 81.25,8 a 2.24,2.24 0 0 1 1.49,0.5 2,2 0 0 0 2.52,0 2.24,2.24 0 0 1 1.49,-0.5 c 1.13,0 2.26,0.1 3.38,0.19 A 2.14,2.14 0 0 1 91.55,8.82 2,2 0 0 0 93,9.46 2.06,2.06 0 0 0 94.13,9.12 2.17,2.17 0 0 1 95.64,8.79 c 1.16,0.17 2.3,0.36 3.44,0.58 a 2.09,2.09 0 0 1 1.3,0.77 2,2 0 0 0 1.62,0.86 2,2 0 0 0 1.44,-0.62 l 0,0 c 1.73,0.43 3.43,0.93 5.11,1.47 a 5,5 0 0 1 3.45,4.71 z"
       class="cls-5"
       inkscape:connector-curvature="0"
       style="fill:#0fbd8c;stroke:#0b8e69;stroke-miterlimit:10" />
    <circle
       id="circle4247"
       r="76"
       cy="87.949997"
       cx="84"
       class="cls-6"
       style="fill:#ffffff;stroke:#7c87a5;stroke-linecap:round;stroke-linejoin:round" />
    <g
       id="g4249"
       class="cls-2"
       style="opacity:0.1">
      <path
         id="path4251"
         d="M 84,20 A 68,68 0 1 1 16,88 68.08,68.08 0 0 1 84,20 m 0,-8 A 76,76 0 1 0 160,88 76,76 0 0 0 84,12 Z"
         class="cls-7"
         inkscape:connector-curvature="0"
         style="fill:url(#linearGradient4346)" />
    </g>
    <path
       id="path4253"
       d="m 83.44,24.32 a 0.72,0.72 0 0 1 1.26,0 l 1.89,3.27 1.89,3.27 A 0.73,0.73 0 0 1 87.85,32 l -7.56,0"
       class="cls-8"
       inkscape:connector-curvature="0"
       style="fill:#e6e7e8;stroke:#7c87a5;stroke-linecap:round;stroke-linejoin:round" />
    <g
       id="g4255"
       class="cls-2"
       style="opacity:0.1">
      <path
         id="path4257"
         d="m 84.07,24 a 0.71,0.71 0 0 1 0.63,0.37 l 1.89,3.27 1.89,3.27 A 0.73,0.73 0 0 1 87.85,32 l -7.56,0"
         class="cls-4"
         inkscape:connector-curvature="0"
         style="fill:#231f20" />
    </g>
    <circle
       id="circle4259"
       r="28"
       cy="87.949997"
       cx="84"
       class="cls-9"
       style="fill:#ffab19;stroke:#7c87a5;stroke-miterlimit:10" />
    <g
       id="g4261"
       class="cls-2"
       style="opacity:0.1">
      <path
         id="path4263"
         d="M 84,60 A 28,28 0 1 1 56,88 28,28 0 0 1 84,60 m 0,-5 A 33,33 0 1 0 117,88 33,33 0 0 0 84,55 Z"
         class="cls-10"
         inkscape:connector-curvature="0"
         style="fill:url(#linear-gradient-2)" />
    </g>
    <circle
       id="circle4265"
       r="20"
       cy="87.949997"
       cx="84"
       class="cls-11"
       style="opacity:0.1;fill:#231f20" />
    <circle
       id="circle4267"
       r="16"
       cy="87.949997"
       cx="84"
       class="cls-12"
       style="fill:url(#linear-gradient-3)" />
    <g
       id="g4269"
       class="cls-2"
       style="opacity:0.1">
      <path
         id="path4271"
         d="M 84,63 A 25,25 0 1 1 59,88 25,25 0 0 1 84,63 m 0,-3 A 28,28 0 1 0 112,88 28,28 0 0 0 84,60 Z"
         class="cls-13"
         inkscape:connector-curvature="0"
         style="fill:url(#linear-gradient-4)" />
    </g>
    <rect
       id="rect4273"
       ry="2"
       rx="2"
       height="4"
       width="8"
       y="83.949997"
       x="20"
       class="cls-8"
       style="fill:#e6e7e8;stroke:#7c87a5;stroke-linecap:round;stroke-linejoin:round" />
    <g
       id="g4275"
       class="cls-2"
       style="opacity:0.1">
      <path
         id="path4277"
         d="m 26,84 a 2,2 0 0 1 0,4 l -4,0 a 2,2 0 0 1 0,-4 l 4,0 m 0,-2 -4,0 a 4,4 0 0 0 0,8 l 4,0 a 4,4 0 0 0 0,-8 z"
         class="cls-4"
         inkscape:connector-curvature="0"
         style="fill:#231f20" />
    </g>
    <rect
       id="rect4279"
       ry="2"
       rx="2"
       height="4"
       width="8"
       y="83.949997"
       x="140"
       class="cls-8"
       style="fill:#e6e7e8;stroke:#7c87a5;stroke-linecap:round;stroke-linejoin:round" />
    <g
       id="g4281"
       class="cls-2"
       style="opacity:0.1">
      <path
         id="path4283"
         d="m 146,84 a 2,2 0 0 1 0,4 l -4,0 a 2,2 0 0 1 0,-4 l 4,0 m 0,-2 -4,0 a 4,4 0 0 0 0,8 l 4,0 a 4,4 0 0 0 0,-8 z"
         class="cls-4"
         inkscape:connector-curvature="0"
         style="fill:#231f20" />
    </g>
    <rect
       id="rect4285"
       transform="matrix(0,1,-1,0,229.95,61.95)"
       ry="2"
       rx="2"
       height="4"
       width="8"
       y="143.95"
       x="80"
       class="cls-8"
       style="fill:#e6e7e8;stroke:#7c87a5;stroke-linecap:round;stroke-linejoin:round" />
    <g
       id="g4287"
       class="cls-2"
       style="opacity:0.1">
      <path
         id="path4289"
         d="m 84,142 a 2,2 0 0 1 2,2 l 0,4"
         class="cls-4"
         inkscape:connector-curvature="0"
         style="fill:#231f20" />
    </g>
    <path
       id="path4291"
       d="M 116,59.76"
       class="cls-14"
       inkscape:connector-curvature="0"
       style="fill:#e6e7e8" />
    <g
       id="g4293"
       class="cls-2"
       style="opacity:0.1">
      <path
         id="path4295"
         d="M 116,59.76"
         class="cls-15"
         inkscape:connector-curvature="0"
         style="fill:none;stroke:#231f20;stroke-width:2px;stroke-linecap:round;stroke-linejoin:round" />
    </g>
  </g>
</svg>
